<?xml version="1.0" encoding="utf-8"?>
<!-- Generator: Adobe Illustrator 19.0.0, SVG Export Plug-In . SVG Version: 6.00 Build 0)  -->
<svg version="1.2" baseProfile="tiny" id="Layer_1" xmlns="http://www.w3.org/2000/svg" xmlns:xlink="http://www.w3.org/1999/xlink"
	 x="0px" y="0px" width="70px" height="70px" viewBox="0 0 70 70" xml:space="preserve">
<g id="_x2E_htaccess_editor">
	<ellipse id="XMLID_26_" fill="#D3D3D3" cx="34.9" cy="68.1" rx="20.4" ry="1.9"/>
	<path id="XMLID_25_" fill="#FFFFFF" stroke="#030404" stroke-width="2" stroke-linecap="round" stroke-miterlimit="10" d="
		M52.8,28.5v34.2c0,2.6-2,4.8-4.5,4.8H21.6c-2.5,0-4.5-2.2-4.5-4.8V22c0-2.6,2-4.8,4.5-4.8H42L52.8,28.5z"/>
	<rect id="XMLID_8_" x="18.3" y="42" fill="#B5B5B5" width="33.5" height="6.5"/>
	<path id="XMLID_27_" fill="#D3D3D3" d="M51,28.3L42.3,18H39v8.4c0,2.9,2.2,4.6,5.2,4.6H51V28.3z"/>
	<path id="XMLID_1093_" fill="#C2E3C8" stroke="#000000" stroke-width="2" stroke-linejoin="round" stroke-miterlimit="10" d="
		M41.9,17.3v7c0,2.5,1.3,3.9,3.8,4h6.5L41.9,17.3z"/>
	<g id="XMLID_20_">
		
			<line id="XMLID_21_" fill="none" stroke="#000000" stroke-width="2" stroke-linecap="round" stroke-miterlimit="10" x1="22.3" y1="41" x2="47.9" y2="41"/>
	</g>
	<g id="XMLID_18_">
		
			<line id="XMLID_19_" fill="none" stroke="#000000" stroke-width="2" stroke-linecap="round" stroke-miterlimit="10" x1="22.3" y1="44.8" x2="47.9" y2="44.8"/>
	</g>
	<g id="XMLID_15_">
		
			<line id="XMLID_16_" fill="none" stroke="#000000" stroke-width="2" stroke-linecap="round" stroke-miterlimit="10" x1="22.3" y1="48.5" x2="47.9" y2="48.5"/>
	</g>
	<g id="XMLID_13_">
		
			<line id="XMLID_14_" fill="none" stroke="#000000" stroke-width="2" stroke-linecap="round" stroke-miterlimit="10" x1="22.3" y1="52.3" x2="47.9" y2="52.3"/>
	</g>
	<g id="XMLID_11_">
		
			<line id="XMLID_12_" fill="none" stroke="#000000" stroke-width="2" stroke-linecap="round" stroke-miterlimit="10" x1="22.3" y1="56" x2="47.9" y2="56"/>
	</g>
	<g id="XMLID_9_">
		
			<line id="XMLID_10_" fill="none" stroke="#000000" stroke-width="2" stroke-linecap="round" stroke-miterlimit="10" x1="22.3" y1="59.8" x2="42.8" y2="59.8"/>
	</g>
	<g id="XMLID_6_">
		<g id="XMLID_7_">
			<path id="XMLID_109_" fill="#9BD2AA" d="M13.2,45.4c-1,0-1.8-0.8-1.8-1.8v-8.2c0-1,0.8-1.8,1.8-1.8h43.5c1,0,1.8,0.8,1.8,1.8v8.2
				c0,1-0.8,1.8-1.8,1.8H13.2z"/>
			<g id="XMLID_105_">
				<path id="XMLID_106_" d="M56.6,34.5c0.5,0,0.8,0.4,0.8,0.8v8.2c0,0.5-0.4,0.8-0.8,0.8H13.2c-0.5,0-0.8-0.4-0.8-0.8v-8.2
					c0-0.5,0.4-0.8,0.8-0.8H56.6 M56.6,32.5H13.2c-1.6,0-2.8,1.3-2.8,2.8v8.2c0,1.6,1.3,2.8,2.8,2.8h43.5c1.6,0,2.8-1.3,2.8-2.8
					v-8.2C59.5,33.8,58.3,32.5,56.6,32.5L56.6,32.5z"/>
			</g>
		</g>
		<text transform="matrix(1 0 0 1 16.185 42.5099)" font-family="'BloggerSans-Bold'" font-size="9.3815px">.</text>
		<text transform="matrix(1 0 0 1 18.7177 42.5099)" font-family="'BloggerSans-Bold'" font-size="9.3815px">h</text>
		<text transform="matrix(1 0 0 1 23.8496 42.5099)" font-family="'BloggerSans-Bold'" font-size="9.3815px">t</text>
		<text transform="matrix(1 0 0 1 27.4047 42.5099)" font-family="'BloggerSans-Bold'" font-size="9.3815px">a</text>
		<text transform="matrix(1 0 0 1 32.3022 42.5099)" font-family="'BloggerSans-Bold'" font-size="9.3815px">c</text>
		<text transform="matrix(1 0 0 1 36.4955 42.5099)" font-family="'BloggerSans-Bold'" font-size="9.3815px">c</text>
		<text transform="matrix(1 0 0 1 40.7075 42.5099)" font-family="'BloggerSans-Bold'" font-size="9.3815px">e</text>
		<text transform="matrix(1 0 0 1 45.3325 42.5099)" font-family="'BloggerSans-Bold'" font-size="9.3815px">s</text>
		<text transform="matrix(1 0 0 1 49.5444 42.5099)" font-family="'BloggerSans-Bold'" font-size="9.3815px">s</text>
	</g>
</g>
</svg>
