<?xml version="1.0" encoding="utf-8"?>
<!-- Generator: Adobe Illustrator 19.0.0, SVG Export Plug-In . SVG Version: 6.00 Build 0)  -->
<svg version="1.2" baseProfile="tiny" id="Layer_1" xmlns="http://www.w3.org/2000/svg" xmlns:xlink="http://www.w3.org/1999/xlink"
	 x="0px" y="0px" width="70px" height="70px" viewBox="0 0 70 70" xml:space="preserve">
<g id="Opencart_tag_search_fix">
	<g id="XMLID_24_">
		<g id="XMLID_279_">
			<ellipse id="XMLID_285_" fill="#D3D3D3" cx="26.9" cy="68.7" rx="22.1" ry="1.3"/>
			<g id="XMLID_711_">
				<path id="XMLID_726_" fill="#FFDAA0" stroke="#000000" stroke-width="2" stroke-miterlimit="10" d="M20.3,50.4L8,62.4
					c-1.2,1.2-1.3,3.2,0,4.5l0,0c1.2,1.2,3.2,1.3,4.5,0l12.3-12L20.3,50.4z"/>
			</g>
			<path id="XMLID_278_" fill="#D3D3D3" d="M40.5,24.7c-1.2,2-1.9,4.3-1.9,6.8c0.1,7.1,5.9,12.8,13,12.7c0.1,0,0.2,0,0.3,0
				c0.7-1.6,1.1-3.3,1-5.1C53,32.6,47.8,27,40.5,24.7z"/>
			<path id="XMLID_703_" fill="#FFFFFF" stroke="#000000" stroke-width="2" stroke-linecap="round" stroke-miterlimit="10" d="
				M34.4,23.5c-10.1,0-18.3,8.2-18.3,18.3s8.2,18.3,18.3,18.3s18.3-8.2,18.3-18.3S44.5,23.5,34.4,23.5z M34.4,55.4
				c-7.6,0-13.7-6.1-13.7-13.7S26.8,28,34.4,28s13.7,6.1,13.7,13.7C48,49.3,41.9,55.4,34.4,55.4z"/>
			<g id="XMLID_1056_">
				<g id="XMLID_280_">
					<path id="XMLID_281_" fill="#E3BA79" stroke="#000000" stroke-width="2" stroke-miterlimit="10" d="M39.7,46.4h-12
						c-0.8,0-1.4-0.6-1.4-1.4v-6.2c0-0.8,0.6-1.4,1.4-1.4h12c0.2,0,0.4,0.1,0.5,0.2l3.4,3.8c0.2,0.3,0.2,0.7,0,1l-3.4,3.8
						C40.1,46.3,39.9,46.4,39.7,46.4z"/>
				</g>
			</g>
		</g>
		<path id="XMLID_303_" display="none" fill="#D3D3D3" d="M40.5,24.7c-0.6,0.9-1.3,3-1.3,3l1.5,0.6l4.5,3.5l4.8,8.7l-0.9,1.7
			l-0.2,1.7c0.9,0.2,1.7,0.1,2.7,0.1c0.1,0,0.2,0,0.3,0c0.7-1,1.1-3.2,1-5C53,32.5,47.8,27,40.5,24.7z"/>
		<g id="XMLID_259_">
			<path id="XMLID_336_" fill="#D3D3D3" d="M49.1,42c0,0.6-0.1,1.1-0.2,1.7c0.8,0.2,1.7,0.3,2.6,0.3c0.1-0.4,0.1-0.9,0.1-1.3
				C50.8,42.5,49.9,42.3,49.1,42z"/>
			<path id="XMLID_337_" fill="#D3D3D3" d="M40.7,28.4c0.1-0.9,0.3-1.7,0.6-2.5c-0.4-0.2-0.8-0.3-1.2-0.5c-0.4,0.7-0.7,1.5-0.9,2.3
				C39.7,28,40.2,28.2,40.7,28.4z"/>
		</g>
		<g id="XMLID_262_">
			
				<circle id="XMLID_275_" fill="#F7E8A9" stroke="#000000" stroke-width="2" stroke-linecap="round" stroke-miterlimit="10" cx="53.4" cy="30.1" r="11.8"/>
			<text id="XMLID_295_" transform="matrix(1 0 0 1 46.5888 33.8592)" font-family="'BloggerSans-Bold'" font-size="10.1507px">F</text>
			
				<text id="XMLID_293_" transform="matrix(1 0 0 1 46.5888 33.8592)" fill="none" stroke="#000000" stroke-width="0.25" stroke-miterlimit="10" font-family="'BloggerSans-Bold'" font-size="10.1507px">F</text>
			<text id="XMLID_292_" transform="matrix(1 0 0 1 52.0888 33.8592)" font-family="'BloggerSans-Bold'" font-size="10.1507px">I</text>
			
				<text id="XMLID_291_" transform="matrix(1 0 0 1 52.0888 33.8592)" fill="none" stroke="#000000" stroke-width="0.25" stroke-miterlimit="10" font-family="'BloggerSans-Bold'" font-size="10.1507px">I</text>
			<text id="XMLID_290_" transform="matrix(1 0 0 1 55.3888 33.8592)" font-family="'BloggerSans-Bold'" font-size="10.1507px">X</text>
			
				<text id="XMLID_286_" transform="matrix(1 0 0 1 55.3888 33.8592)" fill="none" stroke="#000000" stroke-width="0.25" stroke-miterlimit="10" font-family="'BloggerSans-Bold'" font-size="10.1507px">X</text>
		</g>
	</g>
</g>
</svg>
