<?xml version="1.0" encoding="utf-8"?>
<!-- Generator: Adobe Illustrator 19.0.0, SVG Export Plug-In . SVG Version: 6.00 Build 0)  -->
<svg version="1.2" baseProfile="tiny" id="Layer_1" xmlns="http://www.w3.org/2000/svg" xmlns:xlink="http://www.w3.org/1999/xlink"
	 x="0px" y="0px" width="70px" height="70px" viewBox="0 0 70 70" xml:space="preserve">
<g id="Opencart_first_load_of_comments_fix">
	<g id="XMLID_306_">
		<ellipse id="XMLID_307_" fill="#D3D3D3" cx="27.9" cy="68.3" rx="24.8" ry="1.7"/>
		<path id="XMLID_997_" fill="#FFFFFF" stroke="#010101" stroke-width="2" stroke-miterlimit="10" d="M4.3,42.8
			c0-10.4,10.9-18.9,24.5-18.9s24.5,8.5,24.5,18.9S42.4,61.7,28.8,61.7c-2.9,0-5.7-0.4-8.3-1.2l-8.3,6.3c-1.4,1.1-2.3,0.5-2.1-1.2
			l1.5-9.4C7,52.9,4.3,48.1,4.3,42.8z"/>
	</g>
	<path id="XMLID_305_" display="none" fill="#D3D3D3" d="M38.9,25.5c-1.4,2.2-2.1,4.9-2.1,7.6c0.1,8.1,6.7,14.5,14.8,14.4
		c0.1,0,0.2,0,0.3,0c0.7-1.8,1.2-3.8,1.2-5.8C53,34.3,47.2,28.2,38.9,25.5z"/>
	
		<circle id="XMLID_301_" fill="#F7E8A9" stroke="#000000" stroke-width="2" stroke-linecap="round" stroke-miterlimit="10" cx="53.5" cy="31.6" r="13.4"/>
	<text id="XMLID_319_" transform="matrix(1 0 0 1 45.7871 35.8574)" font-family="'BloggerSans-Bold'" font-size="11.5021px">F</text>
	
		<text id="XMLID_318_" transform="matrix(1 0 0 1 45.7871 35.8574)" fill="none" stroke="#000000" stroke-width="0.25" stroke-miterlimit="10" font-family="'BloggerSans-Bold'" font-size="11.5021px">F</text>
	<text id="XMLID_316_" transform="matrix(1 0 0 1 52.0498 35.8574)" font-family="'BloggerSans-Bold'" font-size="11.5021px">I</text>
	
		<text id="XMLID_314_" transform="matrix(1 0 0 1 52.0498 35.8574)" fill="none" stroke="#000000" stroke-width="0.25" stroke-miterlimit="10" font-family="'BloggerSans-Bold'" font-size="11.5021px">I</text>
	<text id="XMLID_313_" transform="matrix(1 0 0 1 55.7647 35.8574)" font-family="'BloggerSans-Bold'" font-size="11.5021px">X</text>
	
		<text id="XMLID_312_" transform="matrix(1 0 0 1 55.7647 35.8574)" fill="none" stroke="#000000" stroke-width="0.25" stroke-miterlimit="10" font-family="'BloggerSans-Bold'" font-size="11.5021px">X</text>
	<path id="XMLID_324_" fill="#D3D3D3" d="M52,45.9c-7-1-12.5-7-12.5-14.3c0-1.6,0.3-3.1,0.7-4.5c-0.5-0.2-1-0.4-1.5-0.6
		c-1,2-1.6,4.3-1.6,6.7c0.1,7.9,6.4,14.2,14.3,14.5L52,45.9z"/>
</g>
</svg>
