<?xml version="1.0" encoding="utf-8"?>
<!-- Generator: Adobe Illustrator 19.0.0, SVG Export Plug-In . SVG Version: 6.00 Build 0)  -->
<svg version="1.2" baseProfile="tiny" id="Layer_1" xmlns="http://www.w3.org/2000/svg" xmlns:xlink="http://www.w3.org/1999/xlink"
	 x="0px" y="0px" width="70px" height="70px" viewBox="0 0 70 70" xml:space="preserve">
<g id="Robots.txt_Editor">
	<ellipse id="XMLID_1123_" fill="#D3D3D3" cx="35" cy="67.8" rx="24" ry="2.2"/>
	<path id="XMLID_1122_" fill="#FFFFFF" stroke="#000000" stroke-width="2" stroke-linecap="round" stroke-miterlimit="10" d="
		M49.7,28.7v34.2c0,2.6-2,4.8-4.5,4.8H18.7c-2.5,0-4.5-2.2-4.5-4.8V22.2c0-2.6,2-4.8,4.5-4.8h20.4L49.7,28.7z"/>
	<path id="XMLID_46_" fill="#D3D3D3" d="M49,28.1L39.2,18h-2.6l0,8.4c-0.1,2.9,1.8,4.6,4.8,4.7l7.6,0V28.1z"/>
	
		<path id="XMLID_1120_" fill="#8DD4DF" stroke="#000000" stroke-width="2" stroke-linecap="round" stroke-linejoin="round" stroke-miterlimit="10" d="
		M38.9,17.5l0,7c0,2.5,1.3,3.9,3.8,4l6.5,0L38.9,17.5z"/>
	<text transform="matrix(1 0 0 1 18.4722 37.8633)" font-family="'BloggerSans-Bold'" font-size="8.4398px">R</text>
	<text transform="matrix(1 0 0 1 23.6797 37.8633)" font-family="'BloggerSans-Bold'" font-size="8.4398px">o</text>
	<text transform="matrix(1 0 0 1 28.2285 37.8633)" font-family="'BloggerSans-Bold'" font-size="8.4398px">b</text>
	<text transform="matrix(1 0 0 1 32.8701 37.8633)" font-family="'BloggerSans-Bold'" font-size="8.4398px">o</text>
	<text transform="matrix(1 0 0 1 37.4189 37.8633)" font-family="'BloggerSans-Bold'" font-size="8.4398px">t</text>
	<text transform="matrix(1 0 0 1 40.8037 37.8633)" font-family="'BloggerSans-Bold'" font-size="8.4398px">s</text>
	<path id="XMLID_216_" fill="#D3D3D3" d="M48.7,42H30.4c-0.9,0-1.6,0.7-1.6,1.6v10.7c0,0.9,0.7,1.6,1.6,1.6h18.3V42z"/>
	<g id="XMLID_1117_">
		
			<line id="XMLID_1118_" fill="none" stroke="#000000" stroke-width="2" stroke-linecap="round" stroke-miterlimit="10" x1="19.4" y1="41.2" x2="44.9" y2="41.2"/>
	</g>
	<g id="XMLID_196_">
		
			<line id="XMLID_197_" fill="none" stroke="#000000" stroke-width="2" stroke-linecap="round" stroke-miterlimit="10" x1="19.4" y1="44.9" x2="44.9" y2="44.9"/>
	</g>
	<g id="XMLID_194_">
		
			<line id="XMLID_195_" fill="none" stroke="#000000" stroke-width="2" stroke-linecap="round" stroke-miterlimit="10" x1="19.4" y1="48.7" x2="44.9" y2="48.7"/>
	</g>
	<g id="XMLID_192_">
		
			<line id="XMLID_193_" fill="none" stroke="#000000" stroke-width="2" stroke-linecap="round" stroke-miterlimit="10" x1="19.4" y1="52.4" x2="44.9" y2="52.4"/>
	</g>
	<g id="XMLID_190_">
		
			<line id="XMLID_191_" fill="none" stroke="#000000" stroke-width="2" stroke-linecap="round" stroke-miterlimit="10" x1="19.4" y1="56.2" x2="44.9" y2="56.2"/>
	</g>
	<g id="XMLID_188_">
		
			<line id="XMLID_189_" fill="none" stroke="#000000" stroke-width="2" stroke-linecap="round" stroke-miterlimit="10" x1="19.4" y1="59.9" x2="39.9" y2="59.9"/>
	</g>
	<g id="XMLID_214_">
		<g id="XMLID_231_">
			<path fill="#56BEC3" d="M31.6,53c-0.2,0-0.3-0.2-0.3-0.3V41.5c0-0.2,0.2-0.3,0.3-0.3h25c0.2,0,0.3,0.2,0.3,0.3v11.2
				c0,0.2-0.2,0.3-0.3,0.3H31.6z"/>
			<g>
				<path fill="#020303" d="M55.9,42.2V52H32.3v-9.8H55.9 M56.6,40.2h-25c-0.7,0-1.3,0.6-1.3,1.3v11.2c0,0.7,0.6,1.3,1.3,1.3h25
					c0.7,0,1.3-0.6,1.3-1.3V41.5C57.9,40.7,57.3,40.2,56.6,40.2L56.6,40.2z"/>
			</g>
		</g>
		<text transform="matrix(1 0 0 1 36.0664 50.1113)" font-family="'BloggerSans-Bold'" font-size="9.3776px">.</text>
		<text transform="matrix(1 0 0 1 38.6924 50.1113)" font-family="'BloggerSans-Bold'" font-size="9.3776px">t</text>
		<text transform="matrix(1 0 0 1 42.3584 50.1113)" font-family="'BloggerSans-Bold'" font-size="9.3776px">x</text>
		<text transform="matrix(1 0 0 1 46.8691 50.1113)" font-family="'BloggerSans-Bold'" font-size="9.3776px">t</text>
	</g>
</g>
</svg>
