<?xml version="1.0" encoding="utf-8"?>
<!-- Generator: Adobe Illustrator 19.0.0, SVG Export Plug-In . SVG Version: 6.00 Build 0)  -->
<svg version="1.2" baseProfile="tiny" id="Layer_1" xmlns="http://www.w3.org/2000/svg" xmlns:xlink="http://www.w3.org/1999/xlink"
	 x="0px" y="0px" width="70px" height="70px" viewBox="0 0 70 70" xml:space="preserve">
<g id="SEO_Module_Multi_Store_support">
	<g id="XMLID_1719_">
		<ellipse id="XMLID_1808_" fill="#D3D3D3" cx="43.2" cy="55.1" rx="19" ry="1.4"/>
		<path id="XMLID_1806_" fill="#90D8F7" stroke="#000000" stroke-width="2" stroke-miterlimit="10" d="M57.6,54.2H28.9
			c-0.7,0-1.3-0.6-1.3-1.3V27.3c0-0.7,0.6-1.3,1.3-1.3h28.7c0.7,0,1.3,0.6,1.3,1.3v25.6C58.9,53.6,58.3,54.2,57.6,54.2z"/>
		<g id="XMLID_1777_">
			<g id="XMLID_1803_">
				
					<path id="XMLID_1805_" fill="#FFFFFF" stroke="#000000" stroke-width="1.7" stroke-linecap="round" stroke-linejoin="round" stroke-miterlimit="10" d="
					M38.3,50.6h-6.8c-0.3,0-0.6-0.3-0.6-0.6V34c0-0.3,0.3-0.6,0.6-0.6h6.8c0.3,0,0.6,0.3,0.6,0.6v16C38.9,50.4,38.6,50.6,38.3,50.6z
					"/>
				<circle id="XMLID_1804_" cx="36.3" cy="42.8" r="0.8"/>
			</g>
			<g id="XMLID_1778_">
				
					<path id="XMLID_1802_" fill="#FFFFFF" stroke="#000000" stroke-width="1.7" stroke-linecap="round" stroke-linejoin="round" stroke-miterlimit="10" d="
					M54.8,50.6H42.6c-0.3,0-0.6-0.3-0.6-0.6V34c0-0.3,0.3-0.6,0.6-0.6h12.2c0.3,0,0.6,0.3,0.6,0.6v16C55.4,50.4,55.1,50.6,54.8,50.6
					z"/>
				<g id="XMLID_1795_">
					
						<line id="XMLID_1801_" fill="none" stroke="#000000" stroke-width="1.7" stroke-linecap="round" stroke-linejoin="round" stroke-miterlimit="10" x1="48.7" y1="34.1" x2="48.7" y2="49.9"/>
					
						<line id="XMLID_1798_" fill="none" stroke="#000000" stroke-width="1.7" stroke-linecap="round" stroke-linejoin="round" stroke-miterlimit="10" x1="42" y1="41.8" x2="55.3" y2="41.8"/>
				</g>
			</g>
		</g>
		<g id="XMLID_1813_">
			<path id="XMLID_1826_" fill="#64BDEA" stroke="#000000" stroke-width="2" stroke-linejoin="round" stroke-miterlimit="10" d="
				M61.5,29.5H24.9c-0.8,0-1.4-0.9-1-1.6l2.9-5.4c0.1-0.2,0.3-0.3,0.5-0.3h31.8c0.2,0,0.4,0.1,0.5,0.3l2.9,5.4
				C62.9,28.6,62.3,29.5,61.5,29.5z"/>
			<g id="XMLID_1814_">
				
					<line id="XMLID_1825_" fill="#FFFFFF" stroke="#000000" stroke-width="2" stroke-miterlimit="10" x1="28" y1="22.1" x2="28" y2="29.5"/>
				
					<line id="XMLID_1824_" fill="#FFFFFF" stroke="#000000" stroke-width="2" stroke-miterlimit="10" x1="31" y1="22.1" x2="31" y2="29.5"/>
				
					<line id="XMLID_1823_" fill="#FFFFFF" stroke="#000000" stroke-width="2" stroke-miterlimit="10" x1="34.1" y1="22.1" x2="34.1" y2="29.5"/>
				
					<line id="XMLID_1822_" fill="#FFFFFF" stroke="#000000" stroke-width="2" stroke-miterlimit="10" x1="37.1" y1="22.1" x2="37.1" y2="29.5"/>
				
					<line id="XMLID_1821_" fill="#FFFFFF" stroke="#000000" stroke-width="2" stroke-miterlimit="10" x1="40.1" y1="22.1" x2="40.1" y2="29.5"/>
				
					<line id="XMLID_1820_" fill="#FFFFFF" stroke="#000000" stroke-width="2" stroke-miterlimit="10" x1="43.2" y1="22.1" x2="43.2" y2="29.5"/>
				
					<line id="XMLID_1819_" fill="#FFFFFF" stroke="#000000" stroke-width="2" stroke-miterlimit="10" x1="46.2" y1="22.1" x2="46.2" y2="29.5"/>
				
					<line id="XMLID_1818_" fill="#FFFFFF" stroke="#000000" stroke-width="2" stroke-miterlimit="10" x1="49.3" y1="22.1" x2="49.3" y2="29.5"/>
				
					<line id="XMLID_1817_" fill="#FFFFFF" stroke="#000000" stroke-width="2" stroke-miterlimit="10" x1="52.3" y1="22.1" x2="52.3" y2="29.5"/>
				
					<line id="XMLID_1816_" fill="#FFFFFF" stroke="#000000" stroke-width="2" stroke-miterlimit="10" x1="55.4" y1="22.1" x2="55.4" y2="29.5"/>
				
					<line id="XMLID_1815_" fill="#FFFFFF" stroke="#000000" stroke-width="2" stroke-miterlimit="10" x1="58.4" y1="22.1" x2="58.4" y2="29.5"/>
			</g>
		</g>
	</g>
	<g id="XMLID_1807_">
		<ellipse id="XMLID_1720_" fill="#D3D3D3" cx="26.4" cy="68.6" rx="19" ry="1.4"/>
		<g id="XMLID_1321_">
			<path id="XMLID_1868_" fill="#E2D373" stroke="#000000" stroke-width="1.7" stroke-linecap="round" stroke-miterlimit="10" d="
				M40.8,68H12.1c-0.7,0-1.3-0.6-1.3-1.3V41c0-0.7,0.6-1.3,1.3-1.3h28.7c0.7,0,1.3,0.6,1.3,1.3v25.6C42.1,67.4,41.5,68,40.8,68z"/>
			<g id="XMLID_1710_">
				<g id="XMLID_1716_">
					
						<path id="XMLID_1718_" fill="#FFFFFF" stroke="#000000" stroke-width="1.7" stroke-linecap="round" stroke-linejoin="round" stroke-miterlimit="10" d="
						M21.5,64.4h-6.8c-0.3,0-0.6-0.3-0.6-0.6v-16c0-0.3,0.3-0.6,0.6-0.6h6.8c0.3,0,0.6,0.3,0.6,0.6v16
						C22.1,64.1,21.9,64.4,21.5,64.4z"/>
					<circle id="XMLID_1717_" cx="19.5" cy="56.6" r="0.8"/>
				</g>
				<g id="XMLID_1711_">
					
						<path id="XMLID_1715_" fill="#FFFFFF" stroke="#000000" stroke-width="1.7" stroke-linecap="round" stroke-linejoin="round" stroke-miterlimit="10" d="
						M38,64.4H25.8c-0.3,0-0.6-0.3-0.6-0.6v-16c0-0.3,0.3-0.6,0.6-0.6H38c0.3,0,0.6,0.3,0.6,0.6v16C38.7,64.1,38.4,64.4,38,64.4z"/>
					<g id="XMLID_1712_">
						
							<line id="XMLID_1714_" fill="none" stroke="#000000" stroke-width="1.7" stroke-linecap="round" stroke-linejoin="round" stroke-miterlimit="10" x1="31.9" y1="47.9" x2="31.9" y2="63.7"/>
						
							<line id="XMLID_1713_" fill="none" stroke="#000000" stroke-width="1.7" stroke-linecap="round" stroke-linejoin="round" stroke-miterlimit="10" x1="25.3" y1="55.6" x2="38.6" y2="55.6"/>
					</g>
				</g>
			</g>
			<g id="XMLID_1461_">
				<g id="XMLID_1704_">
					<path id="XMLID_1709_" fill="#CD5D5D" stroke="#000000" stroke-width="2" stroke-miterlimit="10" d="M16.9,37.9
						c-2.6,0-3.9,0-6.5,0c1.9-2.1,2.8-3.1,4.6-5.2c1.9,0,2.8,0,4.6,0C18.6,34.8,18,35.8,16.9,37.9z"/>
					<path id="XMLID_1708_" fill="#FFFFFF" stroke="#000000" stroke-width="2" stroke-linecap="round" stroke-miterlimit="10" d="
						M23.3,37.9c-2.6,0-3.9,0-6.5,0c1.1-2.1,1.7-3.1,2.8-5.2c1.9,0,2.8,0,4.6,0C23.9,34.8,23.7,35.8,23.3,37.9z"/>
					<path id="XMLID_1707_" fill="#CD5D5D" stroke="#000000" stroke-width="2" stroke-miterlimit="10" d="M29.7,37.9
						c-2.6,0-3.9,0-6.5,0c0.4-2.1,0.6-3.1,0.9-5.2c1.9,0,2.8,0,4.6,0C29.2,34.8,29.4,35.8,29.7,37.9z"/>
					<path id="XMLID_1706_" fill="#FFFFFF" stroke="#000000" stroke-width="2" stroke-linecap="round" stroke-miterlimit="10" d="
						M36.1,37.9c-2.6,0-3.9,0-6.5,0c-0.4-2.1-0.6-3.1-0.9-5.2c1.9,0,2.8,0,4.6,0C34.5,34.8,35,35.8,36.1,37.9z"/>
					<path id="XMLID_1705_" fill="#CD5D5D" stroke="#000000" stroke-width="2" stroke-miterlimit="10" d="M42.6,37.9
						c-2.6,0-3.9,0-6.5,0c-1.1-2.1-1.7-3.1-2.8-5.2c1.9,0,2.8,0,4.6,0C39.7,34.8,40.7,35.8,42.6,37.9z"/>
				</g>
			</g>
			<g id="XMLID_1322_">
				<path id="XMLID_1460_" fill="#CD5D5D" stroke="#000000" stroke-width="2" stroke-miterlimit="10" d="M15.6,43h-7
					c-0.3,0-0.5-0.2-0.5-0.5v-4.9c0-0.3,0.2-0.5,0.5-0.5h7V43z"/>
				
					<rect id="XMLID_1458_" x="15.5" y="37.2" fill="#FFFFFF" stroke="#000000" stroke-width="2" stroke-linecap="round" stroke-miterlimit="10" width="7.4" height="5.8"/>
				
					<rect id="XMLID_1447_" x="22.8" y="37.2" fill="#CD5D5D" stroke="#000000" stroke-width="2" stroke-miterlimit="10" width="7.4" height="5.8"/>
				
					<rect id="XMLID_1441_" x="30.1" y="37.2" fill="#FFFFFF" stroke="#000000" stroke-width="2" stroke-linecap="round" stroke-miterlimit="10" width="7.4" height="5.8"/>
				<path id="XMLID_1323_" fill="#CD5D5D" stroke="#000000" stroke-width="2" stroke-miterlimit="10" d="M44.4,43h-7v-5.8h7
					c0.3,0,0.5,0.2,0.5,0.5v4.9C44.8,42.8,44.6,43,44.4,43z"/>
			</g>
		</g>
	</g>
</g>
</svg>
