<?xml version="1.0" encoding="utf-8"?>
<!-- Generator: Adobe Illustrator 19.0.0, SVG Export Plug-In . SVG Version: 6.00 Build 0)  -->
<svg version="1.2" baseProfile="tiny" id="Layer_1" xmlns="http://www.w3.org/2000/svg" xmlns:xlink="http://www.w3.org/1999/xlink"
	 x="0px" y="0px" width="70px" height="70px" viewBox="0 0 70 70" xml:space="preserve">
<g id="SEO_Module_Quick_Setup">
	<ellipse id="XMLID_1837_" fill="#D3D3D3" cx="34.9" cy="67.8" rx="15.2" ry="2.2"/>
	<g id="XMLID_1916_">
		<g id="XMLID_1915_">
			<path id="XMLID_1695_" fill="#C3A2CC" stroke="#000000" stroke-width="3" stroke-miterlimit="10" d="M36.2,25.1h-2.7
				c-1.6,0-2.8-1.3-2.8-2.8v-3.9c0-1.6,1.3-2.8,2.8-2.8h2.7c1.6,0,2.8,1.3,2.8,2.8v3.9C39,23.8,37.8,25.1,36.2,25.1z"/>
			<path id="XMLID_1913_" fill="#996EAE" stroke="#000000" stroke-width="3" stroke-miterlimit="10" d="M42.8,17H26.9
				c-1.2,0-2.2-1-2.2-2.2v0c0-1.2,1-2.2,2.2-2.2h15.8c1.2,0,2.2,1,2.2,2.2v0C45,16,44,17,42.8,17z"/>
			<rect id="XMLID_1914_" x="32.2" y="18.5" fill="#514359" width="5.4" height="1.3"/>
		</g>
		
			<circle id="XMLID_1836_" fill="#996EAE" stroke="#000000" stroke-width="3" stroke-miterlimit="10" cx="34.9" cy="44.9" r="21.6"/>
		
			<circle id="XMLID_1835_" fill="#FFFFFF" stroke="#000000" stroke-width="3" stroke-linecap="round" stroke-miterlimit="10" cx="34.9" cy="44.9" r="16.6"/>
		<g id="XMLID_1682_">
			<g id="XMLID_41_">
				
					<circle id="XMLID_1726_" fill="#FFFFFF" stroke="#000000" stroke-width="3" stroke-linecap="round" stroke-miterlimit="10" cx="34.9" cy="44.9" r="2.4"/>
				
					<line id="XMLID_42_" fill="#FFFFFF" stroke="#000000" stroke-width="3" stroke-linecap="round" stroke-miterlimit="10" x1="34.9" y1="44.9" x2="44.4" y2="39.5"/>
			</g>
			<g id="XMLID_28_">
				<circle id="XMLID_40_" stroke="#000000" stroke-miterlimit="10" cx="29.3" cy="35.1" r="1.2"/>
				<circle id="XMLID_39_" stroke="#000000" stroke-miterlimit="10" cx="24" cy="41.9" r="1.2"/>
				<circle id="XMLID_38_" stroke="#000000" stroke-miterlimit="10" cx="25" cy="50.5" r="1.2"/>
				<circle id="XMLID_37_" stroke="#000000" stroke-miterlimit="10" cx="31.9" cy="55.8" r="1.2"/>
				<circle id="XMLID_51_" stroke="#000000" stroke-miterlimit="10" cx="40.4" cy="54.7" r="1.2"/>
				<circle id="XMLID_1697_" stroke="#000000" stroke-miterlimit="10" cx="45.8" cy="47.9" r="1.2"/>
				<circle id="XMLID_52_" stroke="#000000" stroke-miterlimit="10" cx="37.9" cy="34" r="1.2"/>
			</g>
		</g>
		<path id="XMLID_1917_" fill="#996EAE" stroke="#000000" stroke-width="3" stroke-miterlimit="10" d="M56,32.3L56,32.3
			c-0.8,0.8-2.1,0.7-2.9-0.1L49,27.6c-0.8-0.8-0.7-2.1,0.1-2.9l0,0c0.8-0.8,2.1-0.7,2.9,0.1l4.2,4.5C56.9,30.2,56.9,31.5,56,32.3z"
			/>
	</g>
</g>
</svg>
