<?xml version="1.0" encoding="utf-8"?>
<!-- Generator: Adobe Illustrator 19.0.0, SVG Export Plug-In . SVG Version: 6.00 Build 0)  -->
<svg version="1.2" baseProfile="tiny" id="Layer_1" xmlns="http://www.w3.org/2000/svg" xmlns:xlink="http://www.w3.org/1999/xlink"
	 x="0px" y="0px" width="70px" height="70px" viewBox="0 0 70 70" xml:space="preserve">
<g id="Target_Keyword_Planner">
	<ellipse id="XMLID_1667_" fill="#D3D3D3" cx="34.4" cy="67.8" rx="24.9" ry="2.2"/>
	<path id="XMLID_1666_" fill="#FFFFFF" stroke="#000000" stroke-width="2" stroke-linecap="round" stroke-miterlimit="10" d="
		M53.1,67.3H15.6c-1.7,0-3-1.4-3-3V18c0-1.7,1.4-3,3-3h37.5c1.7,0,3,1.4,3,3v46.3C56.1,66,54.8,67.3,53.1,67.3z"/>
	
		<line id="XMLID_1665_" fill="#FFFFFF" stroke="#000000" stroke-width="2" stroke-linecap="round" stroke-miterlimit="10" x1="13" y1="21.1" x2="55.7" y2="21.1"/>
	<g id="XMLID_1661_">
		<circle id="XMLID_1664_" cx="16.2" cy="18.2" r="1"/>
	</g>
	<g id="XMLID_342_">
		<circle id="XMLID_343_" cx="18.8" cy="18.2" r="1"/>
	</g>
	<g id="XMLID_340_">
		<circle id="XMLID_341_" cx="21.5" cy="18.2" r="1"/>
	</g>
	<g id="XMLID_320_">
		<g id="XMLID_332_">
			
				<circle id="XMLID_339_" fill="#CE5D5D" stroke="#020303" stroke-width="2" stroke-miterlimit="10" cx="34.4" cy="42.9" r="15.6"/>
			
				<circle id="XMLID_338_" fill="#FFFFFF" stroke="#020303" stroke-width="2" stroke-linecap="round" stroke-linejoin="round" stroke-miterlimit="10" cx="34.4" cy="42.9" r="11.4"/>
			<circle id="XMLID_335_" fill="#CE5D5D" stroke="#020303" stroke-width="2" stroke-miterlimit="10" cx="34.4" cy="42.9" r="7.5"/>
			
				<circle id="XMLID_333_" fill="#FFFFFF" stroke="#020303" stroke-width="2" stroke-linecap="round" stroke-linejoin="round" stroke-miterlimit="10" cx="34.4" cy="42.9" r="3.9"/>
		</g>
		<g id="XMLID_6_">
			<path id="XMLID_5_" fill="#725454" d="M44.1,50.7l1.8,1.2c0.4-0.5,0.8-1.1,1.1-1.7l-1.8-1.2C44.9,49.7,44.5,50.2,44.1,50.7z"/>
			<path id="XMLID_3_" fill="#725454" d="M40.8,48.5l1.6,1.1c0.4-0.5,0.8-1.1,1.1-1.6l-1.6-1.1C41.6,47.5,41.2,48,40.8,48.5z"/>
			<path id="XMLID_2_" fill="#725454" d="M38.9,44.8c-0.3,0.6-0.7,1.2-1.2,1.6l1.4,0.9c0.5-0.5,0.8-1,1.1-1.6L38.9,44.8z"/>
			<path id="XMLID_1_" fill="#725454" d="M34.3,43.9c-0.2,0-0.4-0.1-0.5-0.2c0,0,0,0.1,0.1,0.1l2.2,1.5c0.6-0.4,1-0.9,1.1-1.6
				L34.3,43.9C34.4,43.9,34.4,43.9,34.3,43.9z"/>
		</g>
		<path id="XMLID_4_" display="none" fill="#473238" d="M47.7,50.8L35,42.2c-0.5-0.3-1.1-0.2-1.4,0.3c-0.3,0.5-0.2,1.1,0.3,1.4
			l12.8,8.6c0.2,0.1,0.4,0.2,0.6,0.2c0.3,0,0.6-0.2,0.8-0.4C48.3,51.7,48.2,51.1,47.7,50.8z"/>
		<g id="XMLID_322_">
			<g id="XMLID_326_">
				
					<line id="XMLID_331_" fill="#FFFFFF" stroke="#020303" stroke-width="2" stroke-linecap="round" stroke-miterlimit="10" x1="34.3" y1="42.9" x2="63.5" y2="29.8"/>
				<g id="XMLID_327_">
					
						<polygon id="XMLID_329_" fill="#FFFFFF" stroke="#020303" stroke-width="2" stroke-linecap="round" stroke-linejoin="round" stroke-miterlimit="10" points="
						51,35.2 61,30.7 61.9,26.4 51.8,30.9 					"/>
					
						<polygon id="XMLID_328_" fill="#FFFFFF" stroke="#020303" stroke-width="2" stroke-linecap="round" stroke-linejoin="round" stroke-miterlimit="10" points="
						65,33.2 54.9,37.8 51.1,35.6 61.2,31 					"/>
				</g>
			</g>
			
				<line id="XMLID_325_" fill="#FFFFFF" stroke="#000000" stroke-width="2" stroke-linecap="round" stroke-miterlimit="10" x1="37.8" y1="39.6" x2="34.4" y2="42.9"/>
			
				<line id="XMLID_323_" fill="#FFFFFF" stroke="#000000" stroke-width="2" stroke-linecap="round" stroke-miterlimit="10" x1="39.3" y1="42.5" x2="34.3" y2="42.9"/>
		</g>
	</g>
</g>
</svg>
