<?xml version="1.0" encoding="utf-8"?>
<!-- Generator: Adobe Illustrator 19.0.0, SVG Export Plug-In . SVG Version: 6.00 Build 0)  -->
<svg version="1.1" id="Layer_1" xmlns="http://www.w3.org/2000/svg" xmlns:xlink="http://www.w3.org/1999/xlink" x="0px" y="0px"
	 width="165px" height="127px" viewBox="-397 217 165 127" style="enable-background:new -397 217 165 127;" xml:space="preserve">
<style type="text/css">
	.st0{fill:#E2B979;}
	.st1{fill:#56BEC3;}
	.st2{fill:#020303;}
	.st3{opacity:0.25;}
	.st4{opacity:0.15;}
	.st5{fill:#00000B;}
	.st6{fill:#90D8F7;}
	.st7{fill:#FFFFFF;}
	.st8{fill:#231F20;}
	.st9{fill:none;}
	.st10{fill:#EAD063;}
	.st11{fill:#CD5D5D;}
	.st12{fill:#030404;}
	.st13{fill:#99D0A7;}
	.st14{fill:#65BDEA;}
</style>
<g id="XMLID_17_">
	<g id="XMLID_753_">
		<g id="XMLID_774_">
			<g>
				<circle class="st0" cx="-311.1" cy="298.9" r="16.6"/>
			</g>
			<g>
				<path d="M-311.1,316.5c-3.3,0-6.6-0.9-9.4-2.8c-4-2.5-6.7-6.4-7.7-11s-0.2-9.3,2.3-13.2c2.5-4,6.4-6.7,11-7.7
					c9.5-2.1,18.9,3.9,20.9,13.4c1,4.6,0.2,9.3-2.3,13.2s-6.4,6.7-11,7.7C-308.5,316.3-309.8,316.5-311.1,316.5z M-311.1,283.3
					c-1.1,0-2.2,0.1-3.4,0.4c-4.1,0.9-7.5,3.3-9.8,6.8c-2.2,3.5-3,7.7-2.1,11.7s3.3,7.5,6.8,9.8c3.5,2.2,7.7,3,11.7,2.1
					c4.1-0.9,7.5-3.3,9.8-6.8s3-7.7,2.1-11.7C-297.5,288.3-303.9,283.3-311.1,283.3z"/>
			</g>
		</g>
		<g id="XMLID_755_">
			<g id="XMLID_788_">
				
					<ellipse transform="matrix(0.9733 -0.2297 0.2297 0.9733 -76.9645 -63.4555)" class="st1" cx="-311.1" cy="298.9" rx="34" ry="1.7"/>
				<path class="st2" d="M-343.3,307.9c-1.5,0-1.6-0.4-1.8-0.9c-0.2-1-0.4-1.6,10.1-4.6c6.2-1.8,14.5-3.9,23.3-6s17.2-3.9,23.6-5
					c10.7-2,10.9-1.4,11.1-0.4c0.2,1,0.4,1.6-10.1,4.6c-6.2,1.8-14.5,3.9-23.3,6c-8.9,2.1-17.2,3.9-23.6,5
					C-339.2,307.5-341.9,307.9-343.3,307.9z M-284.3,292.6c-5.8,1-15.2,2.9-26.9,5.6c-11.6,2.7-21,5.3-26.6,7
					c5.8-1,15.2-2.9,26.9-5.6C-299.3,296.8-289.9,294.3-284.3,292.6z"/>
			</g>
		</g>
		<g id="XMLID_811_" class="st3">
			<path d="M-295.1,302.6c0.4-1.7,0.6-3.6,0.4-5.4l-32.1,7.1c0.6,1.7,1.5,3.3,2.7,4.7L-295.1,302.6z"/>
			<path class="st2" d="M-324.4,310.1l-0.4-0.5c-1.2-1.5-2.2-3.2-2.8-5l-0.4-1.1l34.3-7.6l0.1,1.1c0.2,1.9,0,3.9-0.5,5.7l-0.1,0.6
				L-324.4,310.1z M-325.3,304.9c0.5,1,1,2,1.7,2.9l27.7-6.1c0.2-1.1,0.3-2.2,0.3-3.3L-325.3,304.9z"/>
		</g>
	</g>
	<g id="XMLID_2_" class="st4">
		<ellipse class="st5" cx="-311.1" cy="324.4" rx="21.9" ry="1.7"/>
	</g>
	<g id="XMLID_4_">
		<g id="XMLID_381_">
			<line class="st6" x1="-307.8" y1="273.7" x2="-307" y2="271.2"/>
			<path d="M-307.8,274.7c-0.1,0-0.2,0-0.3,0c-0.5-0.2-0.8-0.7-0.7-1.2l0.8-2.6c0.2-0.5,0.7-0.8,1.2-0.7c0.5,0.2,0.8,0.7,0.7,1.2
				l-0.8,2.6C-306.9,274.5-307.3,274.7-307.8,274.7z"/>
		</g>
		<g id="XMLID_176_">
			<line class="st6" x1="-300.4" y1="279.2" x2="-296.3" y2="276.1"/>
			<path d="M-300.4,280.2c-0.3,0-0.6-0.1-0.8-0.4c-0.3-0.4-0.2-1.1,0.2-1.4l4.2-3.1c0.4-0.3,1.1-0.2,1.4,0.2
				c0.3,0.4,0.2,1.1-0.2,1.4l-4.2,3.1C-300,280.1-300.2,280.2-300.4,280.2z"/>
		</g>
	</g>
	<g id="XMLID_177_">
		<line class="st6" x1="-345.3" y1="294.9" x2="-339.3" y2="295.3"/>
		<path d="M-339.3,296.3C-339.3,296.3-339.4,296.3-339.3,296.3l-6.1-0.4c-0.6,0-1-0.5-0.9-1.1c0-0.6,0.5-1,1.1-0.9l6,0.4
			c0.6,0,1,0.5,0.9,1.1C-338.3,295.9-338.8,296.3-339.3,296.3z"/>
	</g>
	<g id="XMLID_3_">
		<g id="XMLID_915_">
			<path class="st7" d="M-337.3,276.7c0-4.6-4.8-8.3-10.7-8.3c-5.9,0-10.7,3.7-10.7,8.3s4.8,8.3,10.7,8.3c1.3,0,2.5-0.2,3.6-0.5
				l3.6,2.7c0.6,0.5,1,0.2,0.9-0.5l-0.6-4.1C-338.5,281-337.3,279-337.3,276.7z"/>
			<path d="M-340.2,288.4c-0.3,0-0.7-0.1-1.2-0.4l-3.2-2.4c-1.1,0.3-2.2,0.4-3.4,0.4c-6.5,0-11.7-4.2-11.7-9.3s5.2-9.3,11.7-9.3
				c6.5,0,11.7,4.2,11.7,9.3c0,2.4-1.1,4.6-3.1,6.3l0.5,3.5c0.2,1.1-0.4,1.6-0.7,1.7C-339.6,288.3-339.8,288.4-340.2,288.4z
				 M-344.1,283.3l3.2,2.4l-0.6-3.6l0.5-0.4c1.8-1.4,2.8-3.2,2.8-5.1c0-4-4.4-7.3-9.7-7.3s-9.7,3.3-9.7,7.3c0,4,4.4,7.3,9.7,7.3
				c1.2,0,2.3-0.2,3.4-0.5L-344.1,283.3z"/>
		</g>
		<g id="XMLID_5_">
			<g id="XMLID_957_">
				<path class="st8" d="M-348.9,279.3c0,0.2-0.1,0.3-0.2,0.4c-0.1,0.1-0.3,0.2-0.4,0.2h-2.4c-0.2,0-0.4,0-0.6-0.1
					c-0.2-0.1-0.3-0.3-0.3-0.5v-5c0-0.2,0.1-0.3,0.2-0.4c0.1-0.1,0.3-0.2,0.5-0.2h2.4c0.2,0,0.3,0.1,0.4,0.2s0.2,0.3,0.2,0.4
					c0,0.2-0.1,0.3-0.2,0.4c-0.1,0.1-0.3,0.2-0.4,0.2h-1.9v1.4h1.7c0.2,0,0.3,0.1,0.4,0.2c0.1,0.1,0.2,0.2,0.2,0.4s-0.1,0.3-0.2,0.4
					c-0.1,0.1-0.3,0.2-0.4,0.2h-1.7v1.5h1.9c0.2,0,0.3,0.1,0.4,0.2C-349,279-348.9,279.2-348.9,279.3z"/>
			</g>
			<g id="XMLID_951_">
				<path class="st8" d="M-344.2,280c-0.1,0-0.2,0-0.3-0.1c-0.1-0.1-0.2-0.1-0.3-0.2l-2.1-3.6v3.3c0,0.2-0.1,0.3-0.2,0.4
					c-0.1,0.1-0.3,0.2-0.4,0.2s-0.3-0.1-0.4-0.2c-0.1-0.1-0.2-0.3-0.2-0.4v-5.3c0-0.2,0.1-0.3,0.2-0.4c0.1-0.1,0.3-0.2,0.5-0.2
					c0.1,0,0.2,0,0.3,0.1c0.1,0.1,0.2,0.1,0.3,0.2c0.2,0.3,0.4,0.7,0.5,0.9s0.3,0.6,0.5,0.8c0.2,0.3,0.3,0.6,0.5,0.9
					c0.2,0.3,0.4,0.6,0.6,1v-3.4c0-0.2,0.1-0.3,0.2-0.4c0.1-0.1,0.3-0.2,0.4-0.2c0.2,0,0.3,0.1,0.4,0.2c0.1,0.1,0.2,0.3,0.2,0.4v5.3
					c0,0.2-0.1,0.3-0.2,0.4C-343.9,279.9-344,280-344.2,280z"/>
			</g>
		</g>
	</g>
	<g id="XMLID_6_">
		<g id="XMLID_12_">
			<path class="st7" d="M-324.6,270.6c0-4.6-4.8-8.3-10.7-8.3s-10.7,3.7-10.7,8.3c0,4.6,4.8,8.3,10.7,8.3c1.3,0,2.5-0.2,3.6-0.5
				l3.6,2.7c0.6,0.5,1,0.2,0.9-0.5l-0.6-4.1C-325.8,275-324.6,272.9-324.6,270.6z"/>
			<path d="M-327.5,282.4c-0.3,0-0.7-0.1-1.2-0.4l-3.2-2.4c-1.1,0.3-2.2,0.4-3.4,0.4c-6.5,0-11.7-4.2-11.7-9.3
				c0-5.1,5.2-9.3,11.7-9.3c6.5,0,11.7,4.2,11.7,9.3c0,2.4-1.1,4.6-3.1,6.3l0.5,3.5c0.2,1.1-0.4,1.6-0.7,1.7
				C-326.9,282.2-327.2,282.4-327.5,282.4z M-331.4,277.3l3.2,2.4l-0.6-3.6l0.5-0.4c1.8-1.4,2.8-3.2,2.8-5.1c0-4-4.4-7.3-9.7-7.3
				s-9.7,3.3-9.7,7.3s4.4,7.3,9.7,7.3c1.2,0,2.3-0.2,3.4-0.5L-331.4,277.3z"/>
		</g>
		<g id="XMLID_7_">
			<g id="XMLID_8_">
				<path class="st8" d="M-338.8,271.2v2.2c0,0.2-0.1,0.3-0.2,0.4c-0.1,0.1-0.3,0.2-0.5,0.2c-0.2,0-0.3-0.1-0.5-0.2
					c-0.1-0.1-0.2-0.3-0.2-0.4v-5.5c0-0.2,0.1-0.3,0.2-0.5c0.1-0.1,0.3-0.2,0.5-0.2h2.6c0.2,0,0.3,0.1,0.5,0.2
					c0.1,0.1,0.2,0.3,0.2,0.4c0,0.2-0.1,0.3-0.2,0.4c-0.1,0.1-0.3,0.2-0.5,0.2h-2v1.5h1.8c0.2,0,0.3,0.1,0.4,0.2
					c0.1,0.1,0.2,0.3,0.2,0.4s-0.1,0.3-0.2,0.4c-0.1,0.1-0.3,0.2-0.5,0.2H-338.8z"/>
			</g>
			<g id="XMLID_10_">
				<path class="st8" d="M-330.5,269.2c0,0.5-0.1,0.9-0.3,1.2c-0.2,0.3-0.6,0.5-1,0.7l1.3,1.9c0.1,0.1,0.1,0.2,0.1,0.4
					c0,0.1,0,0.2-0.1,0.3c-0.1,0.1-0.1,0.2-0.2,0.2c-0.1,0.1-0.2,0.1-0.3,0.1c-0.2,0-0.4-0.1-0.6-0.3l-1.6-2.5h-0.6v2.2
					c0,0.2-0.1,0.3-0.2,0.4c-0.1,0.1-0.3,0.2-0.5,0.2c-0.2,0-0.3-0.1-0.5-0.2s-0.2-0.3-0.2-0.4v-5.4c0-0.2,0.1-0.3,0.2-0.5
					c0.1-0.1,0.3-0.2,0.5-0.2h1.6c0.4,0,0.8,0.1,1.1,0.2c0.3,0.1,0.5,0.3,0.7,0.5s0.3,0.4,0.4,0.6
					C-330.6,268.8-330.5,269-330.5,269.2z M-331.9,269.2c0-0.1,0-0.2,0-0.3c0-0.1-0.1-0.2-0.2-0.3c-0.1-0.1-0.2-0.1-0.3-0.2
					c-0.1,0-0.3-0.1-0.5-0.1h-1v1.6h1.1c0.3,0,0.6-0.1,0.7-0.2C-331.9,269.7-331.9,269.5-331.9,269.2z"/>
			</g>
		</g>
	</g>
	<g id="XMLID_20_">
		<ellipse class="st7" cx="-282.5" cy="272.3" rx="9.5" ry="9.8"/>
		<path d="M-282.5,283.2c-5.8,0-10.5-4.9-10.5-10.8c0-6,4.7-10.8,10.5-10.8s10.5,4.9,10.5,10.8C-272,278.3-276.7,283.2-282.5,283.2z
			 M-282.5,263.5c-4.7,0-8.5,4-8.5,8.8s3.8,8.8,8.5,8.8s8.5-4,8.5-8.8S-277.8,263.5-282.5,263.5z"/>
	</g>
	<g id="XMLID_13_">
		<g id="XMLID_22_">
			<path d="M-280.6,273.6c-0.7,0-1.3-0.3-1.8-0.8l0,0l-0.7-0.7c-1-1-1-2.6,0-3.6l1.9-2c0.9-1,2.6-1,3.6,0l0.7,0.7c1,1,1,2.6,0,3.6
				l-1.9,2C-279.3,273.4-279.9,273.6-280.6,273.6C-280.6,273.6-280.6,273.6-280.6,273.6z M-280.9,271.5c0.1,0.1,0.2,0.1,0.3,0.1
				c0,0,0,0,0,0c0.1,0,0.2-0.1,0.3-0.1l1.9-2c0.2-0.2,0.2-0.6,0-0.8l-0.7-0.7c-0.2-0.2-0.5-0.2-0.7,0l-1.9,2c-0.2,0.2-0.2,0.6,0,0.8
				L-280.9,271.5z"/>
		</g>
		<g id="XMLID_28_">
			<path d="M-285.6,278.9C-285.6,278.9-285.6,278.9-285.6,278.9c-0.7,0-1.3-0.3-1.8-0.8l-0.7-0.7c-1-1-1-2.6,0-3.6l1.9-2
				c0.9-1,2.6-1,3.6,0l0.7,0.7c1,1,1,2.6,0,3.6l-1.9,2C-284.3,278.6-284.9,278.9-285.6,278.9z M-284.3,273c-0.1,0-0.2,0.1-0.3,0.1
				l-1.9,2c-0.2,0.2-0.2,0.6,0,0.8l0.7,0.7c0,0,0,0,0,0c0.1,0.1,0.2,0.1,0.3,0.1h0c0.1,0,0.2-0.1,0.3-0.1l1.9-2
				c0.2-0.2,0.2-0.6,0-0.8l-0.7-0.7C-284.1,273.1-284.2,273-284.3,273z"/>
		</g>
		<g id="XMLID_27_">
			<path d="M-284.7,274.7L-284.7,274.7c-0.2-0.3-0.2-0.7,0-0.9l3.3-3.4c0.2-0.3,0.6-0.3,0.9,0l0,0c0.2,0.3,0.2,0.7,0,0.9l-3.3,3.4
				C-284.1,274.9-284.5,274.9-284.7,274.7z"/>
		</g>
	</g>
	<g id="_x31__stroke">
		<g id="Google">
			<g id="XMLID_1305_">
				<rect x="-323.2" y="234.9" class="st9" width="27.7" height="27.7"/>
			</g>
			<g id="XMLID_1303_">
				<path class="st10" d="M-317.3,248.8c0-0.9,0.1-1.8,0.4-2.6l-4.7-3.6c-0.9,1.9-1.4,3.9-1.4,6.1c0,2.2,0.5,4.3,1.4,6.1l4.7-3.6
					C-317.1,250.5-317.3,249.7-317.3,248.8"/>
				<path d="M-321.9,256.5l-0.5-1.1c-1-2.1-1.5-4.3-1.5-6.6c0-2.3,0.5-4.5,1.5-6.6l0.5-1.1l6.2,4.7l-0.2,0.7
					c-0.2,0.7-0.4,1.5-0.4,2.3c0,0.8,0.1,1.5,0.4,2.3l0.2,0.7L-321.9,256.5z M-321.1,244.2c-0.6,1.5-0.8,3-0.8,4.6
					c0,1.6,0.3,3.1,0.8,4.6l3.1-2.4c-0.2-0.7-0.3-1.4-0.3-2.2c0-0.7,0.1-1.5,0.3-2.2L-321.1,244.2z"/>
			</g>
			<g id="XMLID_1302_">
				<path class="st11" d="M-309,240.6c1.7,0,3.3,0.5,4.6,1.4c0.3,0.2,0.8,0.2,1.1-0.1l2.9-2.9c0.3-0.3,0.3-0.9-0.1-1.2
					c-2.3-1.8-5.2-2.9-8.4-2.9c-5.5,0-10.2,3.1-12.5,7.7l4.7,3.6C-315.8,242.9-312.7,240.6-309,240.6"/>
				<path class="st12" d="M-316.3,247.9l-6.4-4.9l0.4-0.7c2.5-5.1,7.6-8.3,13.4-8.3c3.3,0,6.4,1.1,9,3.1c0.4,0.3,0.7,0.8,0.7,1.3
					c0,0.5-0.2,1-0.5,1.4l-2.9,2.9c-0.6,0.6-1.6,0.7-2.3,0.2c-1.2-0.8-2.6-1.2-4-1.2c-3.1,0-5.9,2-6.8,4.9L-316.3,247.9z
					 M-320.2,242.4l3,2.3c1.5-3.1,4.7-5,8.2-5c1.8,0,3.5,0.5,5,1.5l2.6-2.6c-2.3-1.7-4.9-2.5-7.7-2.5
					C-313.7,235.9-317.9,238.4-320.2,242.4z"/>
			</g>
			<g id="XMLID_1301_">
				<path class="st13" d="M-309,257c-3.6,0-6.7-2.4-7.8-5.6l-4.7,3.6c2.3,4.6,7,7.7,12.5,7.7c3.4,0,6.6-1.2,9.1-3.5l-4.4-3.4
					C-305.7,256.6-307.3,257-309,257"/>
				<path d="M-309,263.7c-5.7,0-10.8-3.2-13.4-8.3l-0.4-0.7l6.4-4.9l0.4,1.3c1,3,3.7,4.9,6.8,4.9c1.6,0,3-0.4,4.1-1.1l0.6-0.4
					l5.9,4.6l-0.9,0.8C-301.9,262.3-305.4,263.7-309,263.7z M-320.2,255.2c2.3,4,6.5,6.4,11.2,6.4c2.8,0,5.4-0.9,7.5-2.4l-2.9-2.3
					c-1.3,0.7-2.9,1-4.5,1c-3.5,0-6.7-2-8.2-5L-320.2,255.2z"/>
			</g>
			<g id="XMLID_1294_">
				<path class="st14" d="M-295.8,248.8c0-0.6-0.1-1.2-0.2-1.9c-0.1-0.4-0.4-0.7-0.8-0.7h-11.4c-0.5,0-0.8,0.4-0.8,0.8v3.7
					c0,0.5,0.4,0.8,0.8,0.8h6.6c-0.4,1.8-1.4,3.2-2.8,4.1l4.4,3.4C-297.4,256.8-295.8,253.3-295.8,248.8"/>
				<path d="M-299.9,260.5l-6.2-4.8l1.2-0.8c0.9-0.6,1.6-1.4,2-2.3h-5.3c-1,0-1.8-0.8-1.8-1.8v-3.7c0-1,0.8-1.8,1.8-1.8h11.4
					c0.9,0,1.6,0.6,1.8,1.5c0.1,0.7,0.2,1.4,0.2,2c0,4.5-1.6,8.4-4.5,11.1L-299.9,260.5z M-302.8,255.8l2.7,2.1
					c2.2-2.3,3.3-5.4,3.3-9.1c0-0.5,0-1-0.1-1.5H-308v3.4h7.7l-0.2,1.2C-300.9,253.4-301.7,254.7-302.8,255.8z"/>
			</g>
		</g>
	</g>
</g>
</svg>
