<?xml version="1.0" encoding="utf-8"?>
<!-- Generator: Adobe Illustrator 19.0.0, SVG Export Plug-In . SVG Version: 6.00 Build 0)  -->
<svg version="1.2" baseProfile="tiny" id="Isolation_Mode"
	 xmlns="http://www.w3.org/2000/svg" xmlns:xlink="http://www.w3.org/1999/xlink" x="0px" y="0px" width="480.6px" height="201.6px"
	 viewBox="-329 308.4 480.6 201.6" xml:space="preserve">
<g id="XMLID_5_">
	<path id="XMLID_38_" fill="#E3BA79" d="M-10.5,510c0.7-13.8-0.4-28-3.6-42.2c-18.8-85.4-103.3-139.3-188.7-120.4
		c-76.7,16.9-128,86.7-124,162.6H-10.5z"/>
	<path fill="#A08155" d="M-118.3,510L-11,484.4l1.3,10l0.5,9l-0.5,6.6C-9.8,510-118.5,509.8-118.3,510z"/>
	<path id="XMLID_34_" fill="#010101" d="M-324.8,510c-3.9-74.9,46.8-144,122.4-160.7c11.3-2.5,22.6-3.7,33.7-3.7
		c71.7,0,136.5,49.8,152.6,122.6c3.1,13.9,4.2,27.9,3.5,41.7h4c0.7-14.1-0.5-28.4-3.6-42.6c-19-86.2-104.7-140.9-191-121.9
		c-77.5,17.1-129.5,87.9-125.6,164.6H-324.8z"/>
	<path id="XMLID_15_" fill="#56C0C4" d="M-171.1,488.8c-32.2,7.1-63.3,14.3-92.5,21.2h145.3c153.2-35.1,269.6-67.7,267.8-75.6
		C147.6,425.7,4.1,450.1-171.1,488.8z"/>
	<path id="XMLID_16_" fill="#030404" d="M151.5,434c-0.6-2.9-1.9-8.4-97.7,7.9c-60.6,10.3-140.6,26.3-225.4,45
		c-34.8,7.7-68.7,15.5-100.7,23.1h17.3c27.1-6.4,55.4-12.8,84.2-19.2c82.2-18.2,160.4-33.9,220.3-44.2c75.6-13,93.2-12.5,97.2-11.6
		c-3.3,2.5-19,10.4-93,30.5C4,479-59.2,494.6-127.4,510h17.9c63.9-14.7,122.6-29.3,169-42C153.4,442.4,152.2,436.9,151.5,434z"/>
	<g id="XMLID_7_">
		<g id="XMLID_29_">
			
				<ellipse id="XMLID_18_" transform="matrix(-0.2476 0.9689 -0.9689 -0.2476 305.5017 573.8889)" fill="#BF9465" cx="-70.1" cy="405.6" rx="5.5" ry="12.5"/>
			<path id="XMLID_12_" d="M-65.2,413.7c-2.1,0-4.4-0.3-6.7-0.9c-3.5-0.9-6.7-2.4-8.9-4.1c-3.6-2.8-3.6-5.4-3.3-6.7
				c1.2-4.8,8.9-5.5,15.9-3.7s13.4,6.1,12.2,10.9c-0.3,1.3-1.6,3.6-6.1,4.3C-63.1,413.6-64.1,413.7-65.2,413.7z M-74.9,401.3
				c-3.1,0-5.1,0.8-5.3,1.6c-0.1,0.5,0.4,1.5,1.9,2.6c1.8,1.4,4.5,2.6,7.4,3.4c2.9,0.7,5.9,1,8.1,0.6c1.8-0.3,2.8-0.9,2.9-1.4l0,0
				c0.3-1.2-3-4.4-9.3-6C-71.4,401.6-73.3,401.3-74.9,401.3z"/>
		</g>
		<g id="XMLID_23_">
			<g id="XMLID_25_">
				<path id="XMLID_13_" fill="#56C0C4" d="M14.4,383.4c0.4,1.5-0.6,2.5-2.1,2.1l-69.4-16.7c-1.5-0.4-2.4-1.9-2.1-3.4l11.8-46
					c0.4-1.5,1.9-2.4,3.5-2.1L25.5,334c1.5,0.4,1.9,1.6,0.9,2.8l-16.2,18.1c-1,1.2-1.6,3.4-1.2,4.9L14.4,383.4z"/>
				<path id="XMLID_6_" fill="#030404" d="M12.9,387.5c-0.4,0-0.7,0-1.1-0.1l-69.4-16.7c-1.3-0.3-2.3-1.1-3-2.2s-0.9-2.4-0.5-3.7
					l11.8-46c0.7-2.6,3.3-4.2,5.9-3.5L26,332c1.4,0.3,2.5,1.2,2.8,2.4c0.4,1.2,0,2.5-0.9,3.6l-16.2,18.1c-0.6,0.7-1,2.2-0.8,3.1
					l5.5,23.7c0.3,1.4,0,2.7-0.9,3.6C14.8,387.2,13.9,387.5,12.9,387.5z M-44.6,319.1c-0.4,0-0.8,0.3-0.9,0.7l-11.8,46
					c-0.1,0.3,0,0.5,0.1,0.6s0.2,0.3,0.5,0.4l69,16.6l-5.5-23.3c-0.5-2.2,0.2-5,1.7-6.7l15.9-17.7L-44.6,319.1
					C-44.5,319.1-44.5,319.1-44.6,319.1z"/>
			</g>
			<g id="XMLID_24_">
				<path id="XMLID_8_" fill="#E3BA79" d="M-70.3,405.7l0.4,0.1c1.4,0.4,2.9-0.5,3.3-2l23-90c0.4-1.4-0.5-2.9-2-3.3l-0.4-0.1
					c-1.4-0.4-2.9,0.5-3.3,2l-23,90C-72.6,403.8-71.7,405.3-70.3,405.7z"/>
				<path id="XMLID_9_" fill="#010101" d="M-69.2,407.9c-0.4,0-0.8,0-1.2-0.1l-0.4-0.1c-1.2-0.3-2.2-1.1-2.9-2.2
					c-0.6-1.1-0.8-2.4-0.5-3.6l23-90c0.3-1.2,1.1-2.2,2.2-2.9c1.1-0.6,2.4-0.8,3.6-0.5l0.4,0.1c1.2,0.3,2.2,1.1,2.9,2.2
					c0.6,1.1,0.8,2.4,0.5,3.6l-23,90C-65.2,406.5-67.1,407.9-69.2,407.9z M-46.6,312.4c-0.2,0-0.3,0.1-0.4,0.1
					c-0.1,0.1-0.3,0.2-0.3,0.4l-23,90c-0.1,0.2,0,0.4,0.1,0.5s0.2,0.3,0.4,0.3l0,0l0.4,0.1c0.4,0.1,0.8-0.1,0.9-0.5l23-90
					c0.1-0.2,0-0.4-0.1-0.5s-0.2-0.3-0.4-0.3l-0.4-0.1C-46.5,312.4-46.6,312.4-46.6,312.4z"/>
			</g>
		</g>
		<g id="XMLID_1_">
			<path id="XMLID_2_" d="M-27.5,350.3c-0.2,0.8-0.5,1.6-0.9,2.2c-0.4,0.7-0.9,1.2-1.6,1.6c-0.6,0.4-1.3,0.7-2.1,0.8
				c-0.8,0.1-1.7,0.1-2.6-0.1c-0.9-0.2-1.7-0.5-2.4-1s-1.2-1-1.6-1.6c-0.4-0.6-0.6-1.3-0.7-2.1c-0.1-0.8,0-1.6,0.1-2.4l2.2-9.5
				c0.1-0.5,0.3-0.8,0.7-1s0.8-0.3,1.3-0.2c0.4,0.1,0.8,0.3,1,0.7c0.3,0.4,0.3,0.8,0.2,1.2l-2.2,9.5c-0.2,0.8-0.1,1.6,0.2,2.2
				s0.9,1,1.8,1.2c0.9,0.2,1.6,0.1,2.1-0.4c0.5-0.4,0.9-1.1,1.1-1.9l2.2-9.5c0.1-0.4,0.3-0.7,0.7-1c0.4-0.2,0.8-0.3,1.3-0.2
				c0.5,0.1,0.8,0.4,1.1,0.7c0.3,0.4,0.3,0.8,0.2,1.2L-27.5,350.3z"/>
			<path id="XMLID_4_" d="M-11.7,347.6c-0.3,1.2-0.8,2.1-1.5,2.7s-1.7,1-2.8,1.1l2.1,5.5c0.1,0.3,0.1,0.7,0,0.9
				c-0.1,0.3-0.2,0.5-0.5,0.7c-0.2,0.2-0.5,0.3-0.7,0.4c-0.3,0.1-0.6,0.1-0.8,0c-0.6-0.1-1-0.5-1.2-1l-2.5-7l-1.6-0.4l-1.2,5.4
				c-0.1,0.4-0.3,0.7-0.7,1c-0.4,0.2-0.8,0.3-1.3,0.2c-0.4-0.1-0.8-0.3-1-0.7s-0.3-0.8-0.2-1.2l3.1-13.5c0.1-0.5,0.4-0.8,0.8-1.1
				c0.4-0.3,0.9-0.3,1.4-0.2l4.1,0.9c1.1,0.3,2,0.6,2.7,1.1s1.2,1,1.5,1.5c0.3,0.6,0.5,1.2,0.6,1.8C-11.5,346.4-11.6,347-11.7,347.6
				z M-15,346.9c0.1-0.2,0.1-0.5,0.1-0.7c0-0.3-0.1-0.5-0.3-0.7s-0.4-0.4-0.7-0.6c-0.3-0.2-0.7-0.4-1.3-0.5l-2.5-0.6l-0.9,3.9
				l2.6,0.6c0.8,0.2,1.5,0.2,2-0.1C-15.5,347.9-15.1,347.5-15,346.9z"/>
			<path id="XMLID_26_" d="M-1.5,360.5c-0.1,0.4-0.3,0.7-0.7,1c-0.4,0.2-0.8,0.3-1.2,0.2l-6.6-1.5c-0.5-0.1-0.8-0.4-1.1-0.7
				c-0.3-0.3-0.4-0.8-0.3-1.3l3.1-13.6c0.1-0.4,0.3-0.7,0.7-0.9c0.4-0.2,0.8-0.3,1.3-0.2c0.5,0.1,0.8,0.3,1.1,0.7
				c0.3,0.4,0.3,0.8,0.2,1.2l-2.8,12.3l5.1,1.2c0.4,0.1,0.8,0.3,1,0.7C-1.5,359.7-1.4,360.1-1.5,360.5z"/>
		</g>
	</g>
</g>
</svg>
