<?xml version="1.0" encoding="utf-8"?>
<!-- Generator: Adobe Illustrator 19.0.0, SVG Export Plug-In . SVG Version: 6.00 Build 0)  -->
<svg version="1.2" baseProfile="tiny" id="Layer_1" xmlns="http://www.w3.org/2000/svg" xmlns:xlink="http://www.w3.org/1999/xlink"
	 x="0px" y="0px" width="70px" height="70px" viewBox="0 0 70 70" xml:space="preserve">
<g id="Multi_Language_url_support_for_SEO_rating">
	<ellipse id="XMLID_257_" fill="#D3D3D3" cx="35.4" cy="68.4" rx="16.1" ry="1.6"/>
	<g id="XMLID_746_">
		<path id="XMLID_881_" fill="#FFFFFF" stroke="#000000" stroke-width="2" stroke-miterlimit="10" d="M43.3,67.5H28.1
			c-0.9,0-1.7-0.8-1.7-1.7v-0.5c0-0.9,0.8-1.7,1.7-1.7h15.2c0.9,0,1.7,0.8,1.7,1.7v0.5C45,66.8,44.2,67.5,43.3,67.5z"/>
		<circle id="XMLID_885_" fill="#F287B5" stroke="#000000" stroke-width="2" stroke-miterlimit="10" cx="38.4" cy="34.9" r="18.7"/>
		<g id="XMLID_886_">
			<linearGradient id="XMLID_3_" gradientUnits="userSpaceOnUse" x1="20.5207" y1="25.0183" x2="50.5072" y2="25.0183">
				<stop  offset="0.5" style="stop-color:#9BD2A9"/>
				<stop  offset="0.5" style="stop-color:#C2E2C7"/>
			</linearGradient>
			
				<line id="XMLID_887_" fill="url(#XMLID_3_)" stroke="#000000" stroke-width="2" stroke-miterlimit="10" x1="20.5" y1="29.3" x2="50.5" y2="20.7"/>
			<linearGradient id="XMLID_4_" gradientUnits="userSpaceOnUse" x1="21.0522" y1="34.9381" x2="55.6849" y2="34.9381">
				<stop  offset="0.5" style="stop-color:#9BD2A9"/>
				<stop  offset="0.5" style="stop-color:#C2E2C7"/>
			</linearGradient>
			
				<line id="XMLID_888_" fill="url(#XMLID_4_)" stroke="#000000" stroke-width="2" stroke-miterlimit="10" x1="21.1" y1="39.9" x2="55.7" y2="30"/>
			<linearGradient id="XMLID_5_" gradientUnits="userSpaceOnUse" x1="26.23" y1="44.8577" x2="56.2178" y2="44.8577">
				<stop  offset="0.5" style="stop-color:#9BD2A9"/>
				<stop  offset="0.5" style="stop-color:#C2E2C7"/>
			</linearGradient>
			
				<line id="XMLID_889_" fill="url(#XMLID_5_)" stroke="#000000" stroke-width="2" stroke-miterlimit="10" x1="26.2" y1="49.2" x2="56.2" y2="40.5"/>
		</g>
		
			<ellipse id="XMLID_890_" transform="matrix(0.961 -0.2765 0.2765 0.961 -8.1657 11.9734)" fill="none" stroke="#000000" stroke-width="2" stroke-miterlimit="10" cx="38.4" cy="34.9" rx="10.2" ry="18.7"/>
		<linearGradient id="XMLID_6_" gradientUnits="userSpaceOnUse" x1="33.1953" y1="34.9381" x2="43.5419" y2="34.9381">
			<stop  offset="0.5" style="stop-color:#9BD2A9"/>
			<stop  offset="0.5" style="stop-color:#C2E2C7"/>
		</linearGradient>
		
			<line id="XMLID_892_" fill="url(#XMLID_6_)" stroke="#000000" stroke-width="2" stroke-miterlimit="10" x1="33.2" y1="17" x2="43.5" y2="52.9"/>
		
			<line id="XMLID_894_" fill="#FFFFFF" stroke="#000000" stroke-width="2" stroke-linecap="round" stroke-miterlimit="10" x1="35.7" y1="59.8" x2="35.7" y2="63.6"/>
		<path id="XMLID_906_" fill="none" stroke="#000000" stroke-width="2" stroke-linecap="round" stroke-miterlimit="10" d="
			M31.7,10.8c-10.8,2.7-18.8,12.5-18.8,24.1c0,13.7,11.1,24.8,24.8,24.8c2.5,0,4.9-0.4,7.2-1.1"/>
		
			<line id="XMLID_902_" fill="#F8CCDF" stroke="#000000" stroke-width="2" stroke-linecap="round" stroke-miterlimit="10" x1="32.3" y1="12.9" x2="31.8" y2="10.9"/>
		
			<line id="XMLID_905_" fill="#F8CCDF" stroke="#000000" stroke-width="2" stroke-linecap="round" stroke-miterlimit="10" x1="45.3" y1="58.6" x2="44.7" y2="56.5"/>
	</g>
</g>
</svg>
