<?xml version="1.0" encoding="utf-8"?>
<!-- Generator: Adobe Illustrator 19.0.0, SVG Export Plug-In . SVG Version: 6.00 Build 0)  -->
<svg version="1.2" baseProfile="tiny" id="Layer_1" xmlns="http://www.w3.org/2000/svg" xmlns:xlink="http://www.w3.org/1999/xlink"
	 x="0px" y="0px" width="70px" height="70px" viewBox="0 0 70 70" xml:space="preserve">
<g id="Autogenerate_urls_for_all_pages">
	<g id="XMLID_1176_">
		<g id="XMLID_1177_">
			<ellipse id="XMLID_1196_" fill="#D3D3D3" cx="35.4" cy="68.3" rx="28.1" ry="1.7"/>
			<g id="XMLID_1192_">
				<path id="XMLID_1193_" fill="#FFFFFF" stroke="#020303" stroke-width="2" stroke-linecap="round" stroke-miterlimit="10" d="
					M37.6,24.1l-2.5,3.8c-0.5,0.7-0.3,1.7,0.4,2.2l1.8,1.4c-0.4,1.7-0.5,3.4-0.3,5.2l-1.9,1.2c-0.7,0.5-1,1.4-0.6,2.1l2.1,4
					c0.4,0.8,1.3,1.1,2.1,0.8l2.1-0.8c1.3,1.2,2.7,2.2,4.4,2.8l0.1,2.3c0,0.9,0.7,1.6,1.6,1.6l4.5,0.2c0.9,0,1.6-0.6,1.7-1.4
					l0.3-2.2c0.8-0.2,1.6-0.6,2.4-1c0.8-0.4,1.5-0.9,2.2-1.4l2,1.1c0.8,0.4,1.7,0.1,2.1-0.6l2.5-3.8c0.5-0.7,0.3-1.7-0.4-2.2
					l-1.8-1.4c0.4-1.7,0.5-3.4,0.3-5.2l1.9-1.2c0.7-0.5,1-1.4,0.6-2.2l-2.1-4c-0.4-0.8-1.3-1.1-2.1-0.8l-2.1,0.8
					c-1.3-1.2-2.7-2.2-4.4-2.8l-0.1-2.3c0-0.9-0.7-1.6-1.6-1.6l-4.5-0.2c-0.9,0-1.6,0.6-1.7,1.4l-0.3,2.3c-0.8,0.2-1.6,0.6-2.4,1
					c-0.8,0.4-1.5,0.9-2.2,1.4l-2-1C39,23.1,38.1,23.4,37.6,24.1z M53.3,32.9c1,1.9,0.2,4.3-1.7,5.3c-1.9,1-4.3,0.2-5.3-1.7
					s-0.2-4.3,1.7-5.3S52.4,31,53.3,32.9z"/>
			</g>
			<path id="XMLID_121_" fill="#D3D3D3" d="M44.4,49.4l3.3,0.2c0.1-0.2,0.1-0.5,0.1-0.7l-0.3-5.4c-0.2-1.2-1.2-2.1-2.4-2L43,41.6
				c-0.5-1.4-1.1-2.8-1.9-4.1l1.4-1.6c0.8-0.9,0.7-2.2-0.1-3l-4.1-3.7c-0.9-0.8-2.2-0.7-3,0.1l-1.2,1.4l1.8,1.4
				c-0.5,1.8-0.6,3.7-0.3,5.6l4,7.9c1.4,1.3,3,2.3,4.7,3L44.4,49.4z"/>
			<circle id="XMLID_1190_" fill="#F2F5F9" cx="24.9" cy="47.1" r="13.8"/>
			<g id="XMLID_1178_">
				<path id="XMLID_1181_" fill="#9AD1A8" stroke="#000000" stroke-width="2" stroke-miterlimit="10" d="M43.1,42.9h-2
					c-0.4-1.3-0.9-2.6-1.6-3.9l1.4-1.4c0.8-0.8,0.8-2,0-2.8l-3.6-3.6c-0.8-0.8-2-0.8-2.8,0l-1.4,1.4c-1.2-0.7-2.5-1.2-3.9-1.6v-1.9
					c0-1.1-0.9-2-1.9-2h-5c-1.1,0-2,0.9-2,2v2c-1.3,0.4-2.6,0.9-3.9,1.6l-1.4-1.4c-0.8-0.8-2-0.8-2.8,0l-3.6,3.6
					c-0.8,0.8-0.8,2,0,2.8l1.4,1.4c-0.7,1.2-1.2,2.5-1.6,3.9H6.6c-1.1,0-2,0.9-2,1.9v5.1c0,1,0.9,1.9,2,1.9h2
					c0.4,1.3,0.9,2.6,1.6,3.9l-1.4,1.4c-0.8,0.8-0.8,2,0,2.8l3.6,3.6c0.8,0.8,2,0.8,2.8,0l1.4-1.4c1.2,0.7,2.5,1.2,3.9,1.6v2
					c0,1.1,0.9,2,2,2h5.1c1.1,0,2-0.9,2-2v-2c1.3-0.4,2.6-0.9,3.9-1.6l1.4,1.4c0.8,0.8,2,0.8,2.8,0l3.6-3.6c0.8-0.8,0.8-2,0-2.8
					l-1.4-1.4c0.7-1.2,1.2-2.5,1.6-3.9h2c1.1,0,2-0.9,2-2v-5C45,43.8,44.1,42.9,43.1,42.9z M24.9,59.9c-6.9,0-12.5-5.6-12.5-12.5
					S18,34.9,24.9,34.9s12.5,5.6,12.5,12.5S31.7,59.9,24.9,59.9z"/>
			</g>
		</g>
	</g>
	<g id="XMLID_1172_">
		
			<path id="XMLID_1175_" fill="none" stroke="#000000" stroke-width="2" stroke-linecap="round" stroke-linejoin="round" stroke-miterlimit="10" d="
			M26,46.5c-0.8-0.8-2.1-0.8-2.9-0.1l-3.9,3.9c-0.8,0.8-0.7,2.1,0.1,2.9l0.5,0.5c0.8,0.8,2.1,0.8,2.9,0.1l1.8-1.8"/>
		
			<path id="XMLID_1173_" fill="none" stroke="#000000" stroke-width="2" stroke-linecap="round" stroke-linejoin="round" stroke-miterlimit="10" d="
			M24.6,48.9c0.8,0.8,2.1,0.8,2.9,0.1l3.9-3.9c0.8-0.8,0.7-2.1-0.1-2.9l-0.5-0.5c-0.8-0.8-2.1-0.8-2.9-0.1l-1.8,1.8"/>
	</g>
</g>
</svg>
