<?xml version="1.0" encoding="utf-8"?>
<!-- Generator: Adobe Illustrator 19.0.0, SVG Export Plug-In . SVG Version: 6.00 Build 0)  -->
<svg version="1.2" baseProfile="tiny" id="Layer_1" xmlns="http://www.w3.org/2000/svg" xmlns:xlink="http://www.w3.org/1999/xlink"
	 x="0px" y="0px" width="70px" height="70px" viewBox="0 0 70 70" xml:space="preserve">
<g id="Clear_all_urls">
	<ellipse id="XMLID_438_" fill="#D3D3D3" cx="35" cy="68.1" rx="17.7" ry="1.9"/>
	<g id="XMLID_450_">
		<g id="XMLID_467_">
			<path id="XMLID_469_" fill="#E5E5E4" stroke="#000000" stroke-width="2" stroke-miterlimit="10" d="M35.6,41.4h-1.2
				c-0.7,0-1.3-0.6-1.3-1.3V8.3c0-0.7,0.6-1.3,1.3-1.3h1.2c0.7,0,1.3,0.6,1.3,1.3v31.8C36.9,40.8,36.3,41.4,35.6,41.4z"/>
			<path id="XMLID_468_" fill="#8DD4DF" stroke="#000000" stroke-width="2" stroke-linecap="round" stroke-miterlimit="10" d="
				M36.3,42.1h-2.6c-1.1,0-2.1-0.9-2.1-2.1v-0.9c0-1.1,0.9-2.1,2.1-2.1h2.6c1.1,0,2.1,0.9,2.1,2.1V40C38.4,41.1,37.4,42.1,36.3,42.1
				z"/>
		</g>
		<path id="XMLID_466_" fill="#8DD4DF" stroke="#000000" stroke-width="2" stroke-linecap="round" stroke-miterlimit="10" d="
			M43.8,45.2H26.2c-0.3,0-0.5-0.2-0.4-0.5l1.8-3.6c0.1-0.3,0.5-0.4,0.8-0.4h13.3c0.4,0,0.7,0.2,0.8,0.4l1.8,3.6
			C44.3,44.9,44.1,45.2,43.8,45.2z"/>
		<g id="XMLID_453_">
			<path id="XMLID_465_" fill="#FFFFFF" stroke="#000000" stroke-width="2" stroke-miterlimit="10" d="M48.4,67.1H21.6
				c-0.3,0-0.6-0.2-0.5-0.5l3.6-18.7h20.6l3.6,18.7C49,66.9,48.7,67.1,48.4,67.1z"/>
			<g id="XMLID_454_">
				<g id="XMLID_463_">
					
						<line id="XMLID_464_" fill="none" stroke="#000000" stroke-width="2" stroke-linecap="round" stroke-miterlimit="10" x1="26.4" y1="61.2" x2="26.4" y2="67.1"/>
				</g>
				<g id="XMLID_461_">
					
						<line id="XMLID_462_" fill="none" stroke="#000000" stroke-width="2" stroke-linecap="round" stroke-miterlimit="10" x1="30.7" y1="56.6" x2="30.7" y2="67.1"/>
				</g>
				<g id="XMLID_459_">
					
						<line id="XMLID_460_" fill="none" stroke="#000000" stroke-width="2" stroke-linecap="round" stroke-miterlimit="10" x1="35" y1="61.2" x2="35" y2="67.1"/>
				</g>
				<g id="XMLID_457_">
					
						<line id="XMLID_458_" fill="none" stroke="#000000" stroke-width="2" stroke-linecap="round" stroke-miterlimit="10" x1="39.3" y1="56.6" x2="39.3" y2="67.1"/>
				</g>
				<g id="XMLID_455_">
					
						<line id="XMLID_456_" fill="none" stroke="#000000" stroke-width="2" stroke-linecap="round" stroke-miterlimit="10" x1="43.6" y1="61.2" x2="43.6" y2="67.1"/>
				</g>
			</g>
		</g>
		<path id="XMLID_452_" fill="#56BEC3" stroke="#000000" stroke-width="2" stroke-linecap="round" stroke-miterlimit="10" d="
			M25,44.9h20c0.9,0,1.6,0.7,1.6,1.6v0c0,0.9-0.7,1.6-1.6,1.6H25c-0.9,0-1.6-0.7-1.6-1.6v0C23.4,45.6,24.1,44.9,25,44.9z"/>
		<polygon id="XMLID_451_" fill="#B5B5B5" points="44.7,50.2 25.2,50.2 25.5,48.5 44.5,48.6 		"/>
	</g>
</g>
</svg>
