<?xml version="1.0" encoding="utf-8"?>
<!-- Generator: Adobe Illustrator 19.0.0, SVG Export Plug-In . SVG Version: 6.00 Build 0)  -->
<svg version="1.2" baseProfile="tiny" id="Layer_1" xmlns="http://www.w3.org/2000/svg" xmlns:xlink="http://www.w3.org/1999/xlink"
	 x="0px" y="0px" width="70px" height="70px" viewBox="0 0 70 70" xml:space="preserve">
<g id="Dashboard_widget_for_redirects">
	<g id="XMLID_405_">
		<g id="XMLID_407_">
			
				<path id="XMLID_410_" fill="#8DD4DF" stroke="#000000" stroke-width="2" stroke-linecap="round" stroke-linejoin="round" stroke-miterlimit="10" d="
				M54,55.6L45.1,50v4h-5.7c-0.3,0-0.6-0.1-0.9-0.4l-13.8-14c-0.2-0.2-0.5-0.4-0.9-0.4h-6.2v3.5h4.6c0.3,0,0.6,0.1,0.9,0.4l14,14
				c0.2,0.2,0.5,0.4,0.9,0.4h7.1v3.7L54,55.6z"/>
			
				<path id="XMLID_409_" fill="#8DD4DF" stroke="#000000" stroke-width="2" stroke-linecap="round" stroke-linejoin="round" stroke-miterlimit="10" d="
				M54,38.7l-8.8,5.6v-4h-5.7c-0.3,0-0.6,0.1-0.9,0.4l-13.8,14c-0.2,0.2-0.5,0.4-0.9,0.4h-6.2v-3.5h4.6c0.3,0,0.6-0.1,0.9-0.4l14-14
				c0.2-0.2,0.5-0.4,0.9-0.4h7.1v-3.7L54,38.7z"/>
		</g>
		<ellipse id="XMLID_406_" fill="#D3D3D3" cx="34.7" cy="68.5" rx="18.7" ry="1.5"/>
	</g>
	<g id="XMLID_414_">
		
			<circle id="XMLID_415_" fill="#FFFFFF" stroke="#020303" stroke-width="2" stroke-linecap="round" stroke-miterlimit="10" cx="35" cy="16.8" r="12.1"/>
		<g id="XMLID_416_">
			<path id="XMLID_417_" fill="#56BEC3" stroke="#000000" stroke-width="2" stroke-linecap="round" stroke-miterlimit="10" d="
				M29.2,11.7L28,13.5c-0.2,0.3-0.1,0.8,0.2,1.1l0.9,0.7c-0.2,0.8-0.2,1.6-0.1,2.5L28,18.3c-0.3,0.2-0.5,0.7-0.3,1l1,1.9
				c0.2,0.4,0.6,0.5,1,0.4l1-0.4c0.6,0.6,1.3,1,2.1,1.3l0,1.1c0,0.4,0.3,0.7,0.8,0.8l2.2,0.1c0.4,0,0.8-0.3,0.8-0.7l0.1-1.1
				c0.4-0.1,0.8-0.3,1.2-0.5c0.4-0.2,0.7-0.4,1.1-0.7l0.9,0.5c0.4,0.2,0.8,0.1,1-0.3L42,20c0.2-0.3,0.1-0.8-0.2-1.1L41,18.3
				c0.2-0.8,0.2-1.6,0.1-2.5l0.9-0.6c0.3-0.2,0.5-0.7,0.3-1l-1-1.9c-0.2-0.4-0.6-0.5-1-0.4l-1,0.4c-0.6-0.6-1.3-1-2.1-1.3l0-1.1
				c0-0.4-0.3-0.7-0.8-0.8l-2.2-0.1c-0.4,0-0.8,0.3-0.8,0.7l-0.2,1.1c-0.4,0.1-0.8,0.3-1.1,0.5c-0.4,0.2-0.7,0.4-1,0.7l-1-0.5
				C29.8,11.3,29.4,11.4,29.2,11.7z M36.7,15.9c0.5,0.9,0.1,2-0.8,2.5c-0.9,0.5-2,0.1-2.5-0.8c-0.5-0.9-0.1-2,0.8-2.5
				S36.2,15,36.7,15.9z"/>
		</g>
	</g>
</g>
</svg>
