<?xml version="1.0" encoding="utf-8"?>
<!-- Generator: Adobe Illustrator 19.0.0, SVG Export Plug-In . SVG Version: 6.00 Build 0)  -->
<svg version="1.2" baseProfile="tiny" id="Layer_1" xmlns="http://www.w3.org/2000/svg" xmlns:xlink="http://www.w3.org/1999/xlink"
	 x="0px" y="0px" width="70px" height="70px" viewBox="0 0 70 70" xml:space="preserve">
<g id="Export__x26__Import_Target_Keywords_for_Custom_Pages">
	<ellipse id="XMLID_30_" fill="#D3D3D3" cx="35.5" cy="67.8" rx="23" ry="2.2"/>
	<g id="XMLID_430_">
		<path id="XMLID_1000_" fill="#FFFFFF" stroke="#030404" stroke-width="2" stroke-linecap="round" stroke-miterlimit="10" d="
			M53.3,28v34c0,2.6-2,4.8-4.5,4.8H22.5C20,66.8,18,64.6,18,62V21.5c0-2.6,2-4.8,4.5-4.8h20.3L53.3,28z"/>
		<path id="XMLID_34_" fill="#D3D3D3" d="M28.8,27H19v17h9.8c1.1,0,2.2-1.1,2.2-2.2V29.3C31,28.1,30,27,28.8,27z"/>
		<path id="XMLID_48_" fill="#D3D3D3" d="M52,28.1L42,17.8v8.1c0,2.8,2,4.1,5,5.1h5V28.1z"/>
		<g id="XMLID_485_">
			
				<line id="XMLID_525_" fill="none" stroke="#010101" stroke-width="2" stroke-linecap="round" stroke-miterlimit="10" x1="23.5" y1="30.8" x2="47.7" y2="30.8"/>
			
				<line id="XMLID_554_" fill="none" stroke="#010101" stroke-width="2" stroke-linecap="round" stroke-miterlimit="10" x1="47.8" y1="59.6" x2="47.8" y2="31.1"/>
			
				<line id="XMLID_553_" fill="none" stroke="#010101" stroke-width="2" stroke-linecap="round" stroke-miterlimit="10" x1="42.4" y1="59.6" x2="42.4" y2="31.1"/>
			
				<line id="XMLID_552_" fill="none" stroke="#010101" stroke-width="2" stroke-linecap="round" stroke-miterlimit="10" x1="37" y1="59.6" x2="37" y2="31.1"/>
			
				<line id="XMLID_551_" fill="none" stroke="#010101" stroke-width="2" stroke-linecap="round" stroke-miterlimit="10" x1="28" y1="59.6" x2="28" y2="31.1"/>
			
				<line id="XMLID_550_" fill="none" stroke="#010101" stroke-width="2" stroke-linecap="round" stroke-miterlimit="10" x1="23.5" y1="59.6" x2="23.5" y2="31.1"/>
			
				<line id="XMLID_556_" fill="none" stroke="#010101" stroke-width="2" stroke-linecap="round" stroke-miterlimit="10" x1="23.5" y1="59.7" x2="47.7" y2="59.7"/>
			
				<line id="XMLID_549_" fill="none" stroke="#010101" stroke-width="2" stroke-linecap="round" stroke-miterlimit="10" x1="23.5" y1="54.9" x2="47.7" y2="54.9"/>
			
				<line id="XMLID_548_" fill="none" stroke="#010101" stroke-width="2" stroke-linecap="round" stroke-miterlimit="10" x1="23.5" y1="50.1" x2="47.7" y2="50.1"/>
			
				<line id="XMLID_547_" fill="none" stroke="#010101" stroke-width="2" stroke-linecap="round" stroke-miterlimit="10" x1="23.5" y1="45.2" x2="47.7" y2="45.2"/>
			
				<line id="XMLID_546_" fill="none" stroke="#010101" stroke-width="2" stroke-linecap="round" stroke-miterlimit="10" x1="23.5" y1="40.4" x2="47.7" y2="40.4"/>
			
				<line id="XMLID_545_" fill="none" stroke="#010101" stroke-width="2" stroke-linecap="round" stroke-miterlimit="10" x1="23.5" y1="35.6" x2="47.7" y2="35.6"/>
		</g>
		<path id="XMLID_484_" fill="#C2E3C8" stroke="#010101" stroke-width="2" stroke-linejoin="bevel" stroke-miterlimit="10" d="
			M42.5,16.9v7c0,2.5,1.3,3.9,3.8,3.9h6.5L42.5,16.9z"/>
		<g id="XMLID_474_">
			<path id="XMLID_555_" fill="#C2E3C8" stroke="#010101" stroke-width="2" stroke-linejoin="bevel" stroke-miterlimit="10" d="
				M25.7,41.5H14.3c-1.6,0-2.8-1.3-2.8-2.8V27.4c0-1.6,1.3-2.8,2.8-2.8h11.4c1.6,0,2.8,1.3,2.8,2.8v11.4
				C28.5,40.3,27.3,41.5,25.7,41.5z"/>
			<g id="XMLID_475_">
				<g id="XMLID_482_">
					<polygon id="XMLID_29_" fill="#FFFFFF" points="22.8,36.4 17.9,29.8 18.2,29.8 23,36.4 					"/>
					<polygon id="XMLID_31_" fill="#030404" points="18.7,28.8 15.8,28.8 22.3,37.4 25,37.4 					"/>
				</g>
				<g id="XMLID_483_">
					<polygon id="XMLID_35_" fill="#FFFFFF" points="17,36.5 22.2,29.6 22.7,29.6 17.5,36.5 					"/>
					<polygon id="XMLID_36_" fill="#030404" points="24.7,28.6 21.7,28.6 15.1,37.5 18,37.5 					"/>
				</g>
			</g>
		</g>
	</g>
</g>
</svg>
