<?xml version="1.0" encoding="utf-8"?>
<!-- Generator: Adobe Illustrator 19.0.0, SVG Export Plug-In . SVG Version: 6.00 Build 0)  -->
<svg version="1.2" baseProfile="tiny" id="Layer_1" xmlns="http://www.w3.org/2000/svg" xmlns:xlink="http://www.w3.org/1999/xlink"
	 x="0px" y="0px" width="70px" height="70px" viewBox="0 0 70 70" xml:space="preserve">
<g id="Long_or_short_urls_for_Category_and_Product">
	<ellipse id="XMLID_986_" fill="#D3D3D3" cx="35" cy="68.6" rx="28" ry="1.4"/>
	<text transform="matrix(1 0 0 1 29.9099 41.6113)" font-family="'BloggerSans-Bold'" font-size="11.0164px">v</text>
	<text transform="matrix(1 0 0 1 35.1755 41.6113)" font-family="'BloggerSans-Bold'" font-size="11.0164px">s</text>
	<g id="XMLID_944_">
		<g id="XMLID_979_">
			<path id="XMLID_32_" fill="#FFFFFF" d="M27.8,59.9c-1.3,0-2.3-1-2.3-2.3s1-2.3,2.3-2.3H40c0.7,0,1.2-0.6,1.2-1.4v-1h4.6v1
				c0,3.3-2.6,5.9-5.8,5.9H27.8z"/>
			<path id="XMLID_16_" d="M44.7,54c0,2.7-2.1,4.9-4.8,4.9l-12.2,0c-0.7,0-1.3-0.6-1.3-1.3c0-0.7,0.6-1.3,1.3-1.3l12.2,0
				c1.2,0,2.2-1.1,2.2-2.4L44.7,54 M46.7,52l-2,0l-2.6,0l-2,0l0,2c0,0.2-0.1,0.4-0.2,0.4l-12.2,0c-1.8,0-3.3,1.5-3.3,3.3
				c0,1.8,1.5,3.3,3.3,3.3l12.2,0c1.8,0,3.5-0.7,4.8-2.1c1.3-1.3,2-3,2-4.9L46.7,52L46.7,52z"/>
		</g>
		<g id="XMLID_970_">
			<path id="XMLID_25_" fill="#FFFFFF" d="M41.9,59.9c-3.1,0-5.6-2.5-5.7-5.7c0-0.1,0-3,0-3H38c-0.7-0.4-1.1-1.1-1.1-2
				c0-1.3,1-2.3,2.3-2.3h12.5c3.2,0,5.8,2.7,5.8,5.9V54c0,3.3-2.6,5.9-5.8,5.9H41.9z M40.7,54.2c0,0.7,0.6,1.2,1.2,1.2h9.7
				c0.7,0,1.2-0.6,1.2-1.4v-1.1c0-0.7-0.5-1.4-1.2-1.4H40.7C40.7,51.5,40.7,54,40.7,54.2z"/>
			<path id="XMLID_12_" d="M51.7,47.9c2.6,0,4.8,2.2,4.8,4.9V54c0,2.7-2.1,4.9-4.8,4.9h-9.7c-2.6,0-4.7-2.1-4.7-4.8c0-0.1,0-1.9,0-2
				h2.6c0,0.1,0,1.9,0,2c0.1,1.2,1,2.2,2.2,2.2h9.7c1.2,0,2.2-1.1,2.2-2.4v-1.1c0-1.3-1-2.4-2.2-2.4H39.2c-0.7,0-1.3-0.6-1.3-1.3
				c0-0.7,0.6-1.3,1.3-1.3H51.7 M51.7,45.9H39.2c-1.8,0-3.3,1.5-3.3,3.3c0,0.3,0.1,0.7,0.1,1h-0.8v2c0,0.1,0,2,0,2
				c0.1,3.8,3.1,6.7,6.7,6.7h9.7c3.7,0,6.8-3.1,6.8-6.9v-1.1C58.4,49,55.4,45.9,51.7,45.9L51.7,45.9z M41.7,52.5h9.9
				c0,0,0.2,0.1,0.2,0.4V54c0,0.2-0.1,0.4-0.2,0.4h-9.7c0,0-0.2-0.1-0.2-0.3C41.7,53.8,41.7,53,41.7,52.5L41.7,52.5z"/>
		</g>
		<g id="XMLID_962_">
			<path id="XMLID_21_" fill="#FFFFFF" d="M18.3,59.9c-3.2,0-5.8-2.7-5.8-5.9v-1.1c0-3.3,2.6-5.9,5.8-5.9h10.1c1.3,0,2.3,1,2.3,2.3
				s-1,2.3-2.3,2.3H18.3c-0.7,0-1.2,0.6-1.2,1.4V54c0,0.7,0.5,1.4,1.2,1.4h9.7c0.6,0,1.1-0.5,1.2-1.3c0-0.1,0-2.4,0-2.4l4.6-0.1
				c0,0,0,2.4,0,2.5c-0.1,3.2-2.7,5.8-5.8,5.8H18.3z"/>
			<path id="XMLID_11_" d="M28.4,47.9c0.7,0,1.3,0.6,1.3,1.3c0,0.7-0.6,1.3-1.3,1.3H18.3c-1.2,0-2.2,1.1-2.2,2.4V54
				c0,1.3,1,2.4,2.2,2.4h9.7c1.2,0,2.1-1,2.2-2.2c0-0.1,0-1.4,0-1.4l2.6,0c0,0.1,0,1.4,0,1.4c-0.1,2.7-2.2,4.8-4.8,4.8h-9.7
				c-2.6,0-4.8-2.2-4.8-4.9v-1.1c0-2.7,2.1-4.9,4.8-4.9H28.4 M28.4,45.9H18.3c-3.7,0-6.8,3.1-6.8,6.9V54c0,3.8,3,6.9,6.8,6.9h9.7
				c3.6,0,6.7-3,6.8-6.7c0-0.1,0-1.4,0-1.5l0-2l-2,0l-1.4,0c0.2-0.4,0.4-1,0.4-1.5C31.7,47.4,30.3,45.9,28.4,45.9L28.4,45.9z
				 M18.3,54.4c0,0-0.2-0.1-0.2-0.4v-1.1c0-0.2,0.1-0.4,0.2-0.4h9.9v0.2c0,0,0,1.1,0,1.3c0,0.2-0.1,0.3-0.2,0.3H18.3L18.3,54.4z"/>
		</g>
		<g id="XMLID_947_">
			<path id="XMLID_17_" fill="#FFFFFF" d="M25.5,55.5c-0.5,0-1-0.4-1-1c0,0,0-1.6,0-1.7c0-3.3,2.6-5.9,5.8-5.9H40
				c3.2,0,5.8,2.7,5.8,5.9V54c0,0.6-0.4,1-1,1h-2.6c-0.6,0-1-0.4-1-1v-1.1c0-0.7-0.5-1.4-1.2-1.4h-9.7c-0.3,0-0.6,0.1-0.8,0.4
				c-0.3,0.3-0.4,0.7-0.4,1.1c0.1,1.9-0.1,2.1-0.3,2.3c-0.2,0.2-0.4,0.3-0.7,0.3C28,55.6,25.5,55.5,25.5,55.5z"/>
			<path id="XMLID_10_" d="M30.3,47.9l9.7,0c2.6,0,4.8,2.2,4.8,4.9l0,1.1l-2.6,0l0-1.1c0-1.3-1-2.4-2.2-2.4c0,0,0,0,0,0l-9.7,0
				c-1.2,0-2.2,1.1-2.2,2.4c0,0,0,1.6,0,1.6l-2.6-0.1c0,0,0-1.6,0-1.6C25.5,50.1,27.6,47.9,30.3,47.9 M30.3,45.9
				C30.3,45.9,30.3,45.9,30.3,45.9c-3.7,0-6.7,3.1-6.8,6.9c0,0,0,1.6,0,1.7c0,1.1,0.9,1.9,1.9,2l2.6,0.1c0,0,0,0,0.1,0
				c0.6,0,1.1-0.2,1.5-0.6c0.6-0.6,0.6-1.2,0.6-3c0-0.2,0.1-0.3,0.1-0.3c0,0,0,0,0.1,0l9.7,0c0,0,0.1,0,0.1,0.1c0,0,0.1,0.1,0.1,0.3
				l0,1.1c0,1.1,0.9,2,2,2c0,0,0,0,0,0l2.6,0c1.1,0,2-0.9,2-2l0-1.1c0-3.8-3-6.9-6.8-6.9L30.3,45.9L30.3,45.9z"/>
		</g>
	</g>
	<g id="XMLID_799_">
		<g id="XMLID_880_">
			<path id="XMLID_9_" fill="#FFFFFF" d="M24.3,30.2c-3.2,0-5.8-2.7-5.8-5.9v-1.1c0-3.3,2.6-5.9,5.8-5.9h4.5c1.3,0,2.3,1,2.3,2.3
				s-1,2.3-2.3,2.3h-4.5c-0.7,0-1.2,0.6-1.2,1.4v1.1c0,0.7,0.5,1.4,1.2,1.4h9.7c0.6,0,1.1-0.6,1.2-1.3c0-0.1,0-1.3,0-1.4
				c0-0.5,0.4-1,1-1c0,0,2.6,0,2.6,0c0.5,0,1,0.4,1,1c0,0.1,0,1.4,0,1.5c-0.1,3.2-2.7,5.8-5.8,5.8H24.3z"/>
			<path id="XMLID_6_" d="M28.9,18.2c0.7,0,1.3,0.6,1.3,1.3c0,0.7-0.6,1.3-1.3,1.3h-4.5c-1.2,0-2.2,1.1-2.2,2.4v1.1
				c0,1.3,1,2.4,2.2,2.4h9.7c1.2,0,2.1-1,2.2-2.2c0-0.1,0-1.4,0-1.4l2.6,0c0,0.1,0,1.4,0,1.4c-0.1,2.7-2.2,4.8-4.8,4.8h-9.7
				c-2.6,0-4.8-2.2-4.8-4.9v-1.1c0-2.7,2.1-4.9,4.8-4.9H28.9 M28.9,16.2h-4.5c-3.7,0-6.8,3.1-6.8,6.9v1.1c0,3.8,3,6.9,6.8,6.9h9.7
				c3.6,0,6.7-3,6.8-6.7c0-0.1,0-1.4,0-1.5c0-0.5-0.2-1-0.6-1.4c-0.4-0.4-0.9-0.6-1.4-0.6c0,0,0,0,0,0l-2.6,0c-1.1,0-2,0.9-2,2
				c0,0,0,1.1,0,1.3c0,0.2-0.1,0.3-0.2,0.3h-9.7c0,0-0.2-0.1-0.2-0.4v-1.1c0-0.2,0.1-0.4,0.2-0.4h4.5c1.8,0,3.3-1.5,3.3-3.3
				C32.1,17.7,30.7,16.2,28.9,16.2L28.9,16.2z"/>
		</g>
		<g id="XMLID_800_">
			<path id="XMLID_5_" fill="#FFFFFF" d="M41.6,30c-1.3,0-2.3-1-2.3-2.3s1-2.3,2.3-2.3h4c0.7,0,1.2-0.6,1.2-1.4v-1.1
				c0-0.7-0.5-1.4-1.2-1.4h-9.7c-0.6,0-1.1,0.5-1.2,1.3c0,0.1,0,1.3,0,1.4c0,0.5-0.4,1-1,1c0,0-2.6,0-2.6,0c-0.3,0-0.5-0.1-0.7-0.3
				c-0.2-0.2-0.3-0.4-0.3-0.7c0-0.1,0-1.4,0-1.5c0.1-3.2,2.7-5.8,5.8-5.8h9.7c3.2,0,5.8,2.7,5.8,5.9v1.1c0,3.3-2.6,5.9-5.8,5.9H41.6
				z"/>
			<path id="XMLID_2_" d="M45.7,18c2.6,0,4.8,2.2,4.8,4.9v1.1c0,2.7-2.1,4.9-4.8,4.9h-4c-0.7,0-1.3-0.6-1.3-1.3
				c0-0.7,0.6-1.3,1.3-1.3h4c1.2,0,2.2-1.1,2.2-2.4v-1.1c0-1.3-1-2.4-2.2-2.4h-9.7c-1.2,0-2.1,1-2.2,2.2c0,0.1,0,1.4,0,1.4l-2.6,0
				c0-0.1,0-1.4,0-1.4c0.1-2.7,2.2-4.8,4.8-4.8H45.7 M45.7,16h-9.7c-3.6,0-6.7,3-6.8,6.7c0,0.1,0,1.4,0,1.5c0,0.5,0.2,1,0.6,1.4
				c0.4,0.4,0.9,0.6,1.4,0.6c0,0,0,0,0,0l2.6,0c1.1,0,2-0.9,2-2c0,0,0-1.1,0-1.3c0-0.2,0.1-0.3,0.2-0.3h9.7c0,0,0.2,0.1,0.2,0.4v1.1
				c0,0.2-0.1,0.4-0.2,0.4h-4c-1.8,0-3.3,1.5-3.3,3.3c0,1.8,1.5,3.3,3.3,3.3h4c3.7,0,6.8-3.1,6.8-6.9v-1.1
				C52.4,19.1,49.4,16,45.7,16L45.7,16z"/>
		</g>
	</g>
</g>
</svg>
