<?xml version="1.0" encoding="utf-8"?>
<!-- Generator: Adobe Illustrator 19.0.0, SVG Export Plug-In . SVG Version: 6.00 Build 0)  -->
<svg version="1.2" baseProfile="tiny" id="Layer_1" xmlns="http://www.w3.org/2000/svg" xmlns:xlink="http://www.w3.org/1999/xlink"
	 x="0px" y="0px" width="70px" height="70px" viewBox="0 0 70 70" xml:space="preserve">
<g id="Overwrite_old_SEO_urls">
	<ellipse id="XMLID_1413_" fill="#D3D3D3" cx="35" cy="68.7" rx="12.5" ry="1.3"/>
	<path id="XMLID_1364_" fill="#AEAEAF" stroke="#000000" stroke-width="2" stroke-linejoin="round" stroke-miterlimit="10" d="
		M51.6,35.8c0,0-3.2,2.3-8.7,3.3c-1.8,0.3-3.6-0.1-5-1l-0.9-0.6c-0.5-0.4-1.2-0.5-1.8-0.5v0c0,0-0.1,0-0.1,0c0,0-0.1,0-0.1,0v0
		c-0.6,0-1.3,0.2-1.8,0.5l-0.9,0.6c-1.4,1-3.3,1.3-5,1c-5.5-1-8.7-3.3-8.7-3.3s-0.6,5.5-0.6,8.4c0,6.6,4.2,12.5,8.5,16.7
		c0.7,0.7,2.3-1.2,2.3-1.2S28,63,30.5,64.5c2.3,1.4,4,2.8,4.4,3.1v0c0,0,0,0,0,0c0,0,0.1,0,0.1,0s0,0,0,0c0,0,0,0,0,0s0,0,0.1,0
		c0,0,0,0,0,0v0c0.4-0.3,2.1-1.7,4.4-3.1c2.5-1.5,1.8-4.9,1.8-4.9s1.6,1.9,2.3,1.2c4.3-4.2,8.5-10.1,8.5-16.7
		C52.1,41.3,51.6,35.8,51.6,35.8z"/>
	<path id="XMLID_1361_" fill="#818282" stroke="#000000" stroke-width="2" stroke-linejoin="round" stroke-miterlimit="10" d="
		M39.5,32.9c-1.8,0-3.9,1.3-4.5,2.4c-0.6-1.1-2.7-2.5-4.5-2.4c-11.9,0.3-14.9-1.6-14.9-1.6s0.2,10.1,13.2,9.8c1.6,0,5.5-1.6,6.1-2.7
		c0.6,1.2,5,2.7,6.6,2.7c13,0.3,12.7-9.8,12.7-9.8S51.3,33.2,39.5,32.9z"/>
	<g id="XMLID_1354_">
		<g id="XMLID_1403_">
			<path id="XMLID_9_" fill="#FFFFFF" d="M25.8,22.5c-2.8,0-5.1-2.4-5.1-5.2v-1c0-2.9,2.3-5.2,5.1-5.2h3.9c1.2,0,2.1,0.9,2.1,2.1
				c0,1.2-0.9,2.1-2.1,2.1h-3.9c-0.5,0-0.9,0.5-0.9,1v1c0,0.6,0.4,1,0.9,1h8.4c0.5,0,0.8-0.4,0.9-1c0-0.1,0-1.1,0-1.2
				c0-0.5,0.4-1,1-1c0,0,2.2,0,2.2,0c0.3,0,0.5,0.1,0.7,0.3c0.2,0.2,0.3,0.4,0.3,0.7c0,0,0,1.2,0,1.3c-0.1,2.8-2.4,5.1-5.1,5.1H25.8
				z"/>
			<path id="XMLID_6_" d="M29.7,12c0.6,0,1.1,0.5,1.1,1.1c0,0.6-0.5,1.1-1.1,1.1h-3.9c-1,0-1.9,0.9-1.9,2v1c0,1.1,0.8,2,1.9,2h8.4
				c1,0,1.8-0.8,1.9-1.9c0,0,0-1.2,0-1.2l2.2,0c0,0,0,1.2,0,1.2c-0.1,2.3-1.9,4.1-4.1,4.1h-8.4c-2.3,0-4.1-1.9-4.1-4.2v-1
				c0-2.3,1.8-4.2,4.1-4.2H29.7 M29.7,10h-3.9c-3.4,0-6.1,2.8-6.1,6.2v1c0,3.4,2.7,6.2,6.1,6.2h8.4c3.3,0,6-2.7,6.1-6.1
				c0,0,0-1.3,0-1.3c0-0.5-0.2-1-0.6-1.4c-0.4-0.4-0.9-0.6-1.4-0.6c0,0,0,0,0,0l-2.2,0c-1.1,0-2,0.9-2,2c0,0,0,0.9,0,1.1h-8.2
				c0,0,0,0,0,0v-1c0,0,0,0,0,0h3.8c1.7,0,3.1-1.4,3.1-3.1C32.8,11.4,31.4,10,29.7,10L29.7,10z"/>
		</g>
		<g id="XMLID_1365_">
			<path id="XMLID_5_" fill="#FFFFFF" d="M40.7,22.2c-1.2,0-2.1-0.9-2.1-2.1s0.9-2.1,2.1-2.1h3.5c0.5,0,0.9-0.5,0.9-1v-1
				c0-0.6-0.4-1-0.9-1h-8.4c-0.5,0-0.8,0.4-0.9,1c0,0.1,0,1.1,0,1.2c0,0.5-0.4,1-1,1c0,0-2.2,0-2.2,0c-0.3,0-0.5-0.1-0.7-0.3
				c-0.2-0.2-0.3-0.4-0.3-0.7c0,0,0-1.2,0-1.3c0.1-2.8,2.4-5.1,5.1-5.1h8.4c2.8,0,5.1,2.4,5.1,5.2v1c0,2.9-2.3,5.2-5.1,5.2H40.7z"/>
			<path id="XMLID_2_" d="M44.2,11.8c2.3,0,4.1,1.9,4.1,4.2v1c0,2.3-1.8,4.2-4.1,4.2h-3.5c-0.6,0-1.1-0.5-1.1-1.1
				c0-0.6,0.5-1.1,1.1-1.1h3.5c1,0,1.9-0.9,1.9-2v-1c0-1.1-0.8-2-1.9-2h-8.4c-1,0-1.8,0.8-1.9,1.9c0,0,0,1.2,0,1.2l-2.2,0
				c0,0,0-1.2,0-1.2c0.1-2.3,1.9-4.1,4.1-4.1H44.2 M44.2,9.8h-8.4c-3.3,0-6,2.7-6.1,6.1c0,0,0,1.3,0,1.3c0,0.5,0.2,1,0.6,1.4
				c0.4,0.4,0.9,0.6,1.4,0.6c0,0,0,0,0,0l2.2,0c1.1,0,2-0.9,2-2c0,0,0-0.9,0-1.1h8.2c0,0,0,0,0,0v1c0,0,0,0,0,0h-3.4
				c-1.7,0-3.1,1.4-3.1,3.1c0,1.7,1.4,3.1,3.1,3.1h3.5c3.4,0,6.1-2.8,6.1-6.2v-1C50.3,12.6,47.6,9.8,44.2,9.8L44.2,9.8z"/>
		</g>
	</g>
</g>
</svg>
