<?xml version="1.0" encoding="utf-8"?>
<!-- Generator: Adobe Illustrator 19.0.0, SVG Export Plug-In . SVG Version: 6.00 Build 0)  -->
<svg version="1.2" baseProfile="tiny" id="Layer_1" xmlns="http://www.w3.org/2000/svg" xmlns:xlink="http://www.w3.org/1999/xlink"
	 x="0px" y="0px" width="70px" height="70px" viewBox="0 0 70 70" xml:space="preserve">
<g id="Pagination_links_next_and_prev">
	<ellipse id="XMLID_517_" fill="#D3D3D3" cx="35" cy="68.4" rx="33.5" ry="1.6"/>
	<g id="XMLID_509_">
		<g id="XMLID_363_">
			
				<polygon id="XMLID_494_" fill="#996EAE" stroke="#000000" stroke-width="2" stroke-linejoin="round" stroke-miterlimit="10" points="
				4.6,34.1 4.6,66.1 30.4,66.1 35,67.6 35,35.7 30.4,34.1 			"/>
			
				<polygon id="XMLID_499_" fill="#996EAE" stroke="#000000" stroke-width="2" stroke-linejoin="round" stroke-miterlimit="10" points="
				39.6,34.1 39.6,34.1 35.1,35.7 35.1,67.6 39.6,66.1 65.4,66.1 65.4,34.1 			"/>
		</g>
		<g id="XMLID_493_">
			
				<polygon id="XMLID_362_" fill="#AEAEAF" stroke="#000000" stroke-width="2" stroke-linejoin="round" stroke-miterlimit="10" points="
				35,64 30.9,62.3 30.9,30.5 35,32.1 			"/>
			
				<polygon id="XMLID_364_" fill="#E5E5E4" stroke="#000000" stroke-width="2" stroke-linejoin="round" stroke-miterlimit="10" points="
				35,64 39.1,62.3 39.1,30.5 35,32.1 			"/>
			<g id="XMLID_481_">
				
					<rect id="XMLID_472_" x="8.5" y="30.5" fill="#FFFFFF" stroke="#000000" stroke-width="2" stroke-linejoin="round" stroke-miterlimit="10" width="22.6" height="32"/>
				<g id="XMLID_473_">
					
						<line id="XMLID_367_" fill="#FFFFFF" stroke="#000000" stroke-width="2" stroke-linecap="round" stroke-linejoin="round" stroke-miterlimit="10" x1="12.8" y1="35.9" x2="23.2" y2="35.9"/>
					
						<line id="XMLID_476_" fill="#FFFFFF" stroke="#000000" stroke-width="2" stroke-linecap="round" stroke-linejoin="round" stroke-miterlimit="10" x1="12.8" y1="40.1" x2="26.5" y2="40.1"/>
					
						<line id="XMLID_477_" fill="#FFFFFF" stroke="#000000" stroke-width="2" stroke-linecap="round" stroke-linejoin="round" stroke-miterlimit="10" x1="12.8" y1="44.3" x2="24.7" y2="44.3"/>
					
						<line id="XMLID_478_" fill="#FFFFFF" stroke="#000000" stroke-width="2" stroke-linecap="round" stroke-linejoin="round" stroke-miterlimit="10" x1="12.8" y1="48.6" x2="27.1" y2="48.6"/>
					
						<line id="XMLID_479_" fill="#FFFFFF" stroke="#000000" stroke-width="2" stroke-linecap="round" stroke-linejoin="round" stroke-miterlimit="10" x1="12.8" y1="52.8" x2="26.2" y2="52.8"/>
					
						<line id="XMLID_480_" fill="#FFFFFF" stroke="#000000" stroke-width="2" stroke-linecap="round" stroke-linejoin="round" stroke-miterlimit="10" x1="12.8" y1="57" x2="21.1" y2="57"/>
				</g>
			</g>
			<g id="XMLID_365_">
				
					<rect id="XMLID_492_" x="39.1" y="30.5" fill="#FFFFFF" stroke="#000000" stroke-width="2" stroke-linejoin="round" stroke-miterlimit="10" width="22.6" height="32"/>
				<g id="XMLID_366_">
					
						<line id="XMLID_491_" fill="#FFFFFF" stroke="#000000" stroke-width="2" stroke-linecap="round" stroke-linejoin="round" stroke-miterlimit="10" x1="43.4" y1="35.9" x2="57.6" y2="35.9"/>
					
						<line id="XMLID_490_" fill="#FFFFFF" stroke="#000000" stroke-width="2" stroke-linecap="round" stroke-linejoin="round" stroke-miterlimit="10" x1="43.4" y1="40.1" x2="54.9" y2="40.1"/>
					
						<line id="XMLID_489_" fill="#FFFFFF" stroke="#000000" stroke-width="2" stroke-linecap="round" stroke-linejoin="round" stroke-miterlimit="10" x1="43.4" y1="44.3" x2="56.3" y2="44.3"/>
					
						<line id="XMLID_488_" fill="#FFFFFF" stroke="#000000" stroke-width="2" stroke-linecap="round" stroke-linejoin="round" stroke-miterlimit="10" x1="43.4" y1="48.6" x2="53.1" y2="48.6"/>
					
						<line id="XMLID_487_" fill="#FFFFFF" stroke="#000000" stroke-width="2" stroke-linecap="round" stroke-linejoin="round" stroke-miterlimit="10" x1="43.4" y1="52.8" x2="56.8" y2="52.8"/>
					
						<line id="XMLID_486_" fill="#FFFFFF" stroke="#000000" stroke-width="2" stroke-linecap="round" stroke-linejoin="round" stroke-miterlimit="10" x1="43.4" y1="57" x2="55.7" y2="57"/>
				</g>
			</g>
		</g>
	</g>
</g>
</svg>
