<?xml version="1.0" encoding="utf-8"?>
<!-- Generator: Adobe Illustrator 19.0.0, SVG Export Plug-In . SVG Version: 6.00 Build 0)  -->
<svg version="1.2" baseProfile="tiny" id="Layer_1" xmlns="http://www.w3.org/2000/svg" xmlns:xlink="http://www.w3.org/1999/xlink"
	 x="0px" y="0px" width="70px" height="70px" viewBox="0 0 70 70" xml:space="preserve">
<g id="Pagination_Canonicals">
	<g id="XMLID_304_">
		<ellipse id="XMLID_389_" fill="#D3D3D3" cx="34.5" cy="68.1" rx="20.4" ry="1.9"/>
		<path id="XMLID_388_" fill="#FFFFFF" stroke="#020303" stroke-width="2" stroke-linecap="round" stroke-miterlimit="10" d="
			M52.2,28.5v34.2c0,2.6-2,4.8-4.5,4.8H21.2c-2.5,0-4.5-2.2-4.5-4.8V22c0-2.6,2-4.8,4.5-4.8h20.4L52.2,28.5z"/>
		<path id="XMLID_23_" fill="#D3D3D3" d="M42.1,18h-2.9l0,8.1c-0.1,2.9,1.5,4.7,4.5,4.7l7.3,0.2v-2.9L42.1,18z"/>
		<path id="XMLID_386_" fill="#C1E1C7" stroke="#000000" stroke-width="2" stroke-linejoin="round" stroke-miterlimit="10" d="
			M41.5,17.3l0,7c0,2.5,1.3,3.9,3.8,4l6.5,0L41.5,17.3z"/>
		<g id="XMLID_198_">
			<g id="XMLID_384_">
				
					<line id="XMLID_385_" fill="none" stroke="#231F20" stroke-width="2" stroke-linecap="round" stroke-miterlimit="10" x1="21.9" y1="31.4" x2="36.5" y2="31.4"/>
			</g>
			<g id="XMLID_302_">
				
					<line id="XMLID_309_" fill="none" stroke="#231F20" stroke-width="2" stroke-linecap="round" stroke-miterlimit="10" x1="21.9" y1="36.1" x2="47.6" y2="36.1"/>
			</g>
			<g id="XMLID_310_">
				
					<line id="XMLID_311_" fill="none" stroke="#231F20" stroke-width="2" stroke-linecap="round" stroke-miterlimit="10" x1="21.9" y1="40.8" x2="45.1" y2="40.8"/>
			</g>
			<g id="XMLID_330_">
				
					<line id="XMLID_334_" fill="none" stroke="#231F20" stroke-width="2" stroke-linecap="round" stroke-miterlimit="10" x1="21.9" y1="45.5" x2="39.9" y2="45.5"/>
			</g>
			<g id="XMLID_353_">
				
					<line id="XMLID_354_" fill="none" stroke="#231F20" stroke-width="2" stroke-linecap="round" stroke-miterlimit="10" x1="21.9" y1="50.2" x2="46.9" y2="50.2"/>
			</g>
			<g id="XMLID_355_">
				
					<line id="XMLID_356_" fill="none" stroke="#231F20" stroke-width="2" stroke-linecap="round" stroke-miterlimit="10" x1="21.9" y1="54.9" x2="44.3" y2="54.9"/>
			</g>
			<g id="XMLID_357_">
				
					<line id="XMLID_358_" fill="none" stroke="#231F20" stroke-width="2" stroke-linecap="round" stroke-miterlimit="10" x1="21.9" y1="59.5" x2="42" y2="59.5"/>
			</g>
		</g>
	</g>
	<g id="XMLID_372_">
		<path id="XMLID_1080_" fill="#C1E1C7" stroke="#000000" stroke-width="2" stroke-miterlimit="10" d="M54.4,60H15.1
			c-1.3,0-2.4-1.1-2.4-2.4V47.4c0-1.3,1.1-2.4,2.4-2.4h39.3c0.3,0,0.7,0.1,0.9,0.4l5.6,6.3c0.4,0.4,0.4,1.1,0,1.6l-5.6,6.3
			C55.1,59.9,54.8,60,54.4,60z"/>
		
			<text id="XMLID_359_" transform="matrix(1 0 0 1 17.1306 54.9042)" fill="#231F20" font-family="'BloggerSans-Bold'" font-size="9px">canonical</text>
	</g>
</g>
</svg>
