<?xml version="1.0" encoding="utf-8"?>
<!-- Generator: Adobe Illustrator 19.0.0, SVG Export Plug-In . SVG Version: 6.00 Build 0)  -->
<svg version="1.2" baseProfile="tiny" id="Layer_1" xmlns="http://www.w3.org/2000/svg" xmlns:xlink="http://www.w3.org/1999/xlink"
	 x="0px" y="0px" width="70px" height="70px" viewBox="0 0 70 70" xml:space="preserve">
<g id="Redirects_with_Multi_Language_support">
	<g id="XMLID_394_">
		<path id="XMLID_396_" fill="#C1E1C7" stroke="#000000" stroke-width="2" stroke-linejoin="round" stroke-miterlimit="10" d="
			M60.9,50.7l-11.8-7.4v5.3h-7.6c-0.4,0-0.9-0.2-1.2-0.5L21.9,29.3c-0.3-0.3-0.7-0.5-1.2-0.5h-8.4v4.7h6.2c0.4,0,0.9,0.2,1.2,0.5
			l18.7,18.7c0.3,0.3,0.7,0.5,1.2,0.5h9.5v4.9L60.9,50.7z"/>
		<path id="XMLID_395_" fill="#C1E1C7" stroke="#000000" stroke-width="2" stroke-linejoin="round" stroke-miterlimit="10" d="
			M60.9,28.1l-11.8,7.4v-5.3h-7.6c-0.4,0-0.9,0.2-1.2,0.5L21.9,49.4c-0.3,0.3-0.7,0.5-1.2,0.5h-8.4v-4.7h6.2c0.4,0,0.9-0.2,1.2-0.5
			l18.7-18.7c0.3-0.3,0.7-0.5,1.2-0.5h9.5v-4.9L60.9,28.1z"/>
	</g>
	<ellipse id="XMLID_403_" fill="#D3D3D3" cx="35" cy="67.8" rx="26.6" ry="2.2"/>
</g>
</svg>
