<?xml version="1.0" encoding="utf-8"?>
<!-- Generator: Adobe Illustrator 19.0.0, SVG Export Plug-In . SVG Version: 6.00 Build 0)  -->
<svg version="1.2" baseProfile="tiny" id="Layer_1" xmlns="http://www.w3.org/2000/svg" xmlns:xlink="http://www.w3.org/1999/xlink"
	 x="0px" y="0px" width="70px" height="70px" viewBox="0 0 70 70" xml:space="preserve">
<g id="XMLID_1_">
	<g id="XMLID_2_">
		<g id="XMLID_1989_">
			<g id="XMLID_1872_">
				<path id="XMLID_1831_" fill="none" stroke="#000000" stroke-width="2" stroke-linecap="round" stroke-miterlimit="10" d="M27,38
					v5.7c0,0.6-0.5,1-1,1h-6.6"/>
				
					<circle id="XMLID_1870_" fill="#92D9F8" stroke="#000000" stroke-width="2" stroke-miterlimit="10" cx="18.2" cy="44.8" r="1.8"/>
			</g>
			<g id="XMLID_1923_">
				<path id="XMLID_1932_" fill="none" stroke="#000000" stroke-width="2" stroke-linecap="round" stroke-miterlimit="10" d="
					M42.8,38.3v12.9c0,0.6,0.5,1,1,1h6.6"/>
				
					<circle id="XMLID_1924_" fill="#92D9F8" stroke="#000000" stroke-width="2" stroke-miterlimit="10" cx="51.6" cy="52.3" r="1.8"/>
			</g>
		</g>
		<g id="XMLID_1990_">
			<g id="XMLID_1934_">
				
					<line id="XMLID_1933_" fill="none" stroke="#000000" stroke-width="2" stroke-linecap="round" stroke-miterlimit="10" x1="32.3" y1="37.9" x2="32.3" y2="60.1"/>
				
					<circle id="XMLID_1874_" fill="#65BEEB" stroke="#000000" stroke-width="2" stroke-miterlimit="10" cx="32.3" cy="60.9" r="1.8"/>
			</g>
			<g id="XMLID_1986_">
				
					<line id="XMLID_1988_" fill="none" stroke="#000000" stroke-width="2" stroke-linecap="round" stroke-miterlimit="10" x1="37.5" y1="36.9" x2="37.5" y2="45.6"/>
				
					<circle id="XMLID_1987_" fill="#FFFFFF" stroke="#000000" stroke-width="2" stroke-linecap="round" stroke-miterlimit="10" cx="37.5" cy="46.3" r="1.8"/>
			</g>
		</g>
		<g id="XMLID_1985_">
			<path id="XMLID_1919_" fill="#65BEEB" stroke="#000000" stroke-width="2" stroke-linejoin="round" stroke-miterlimit="10" d="
				M50.6,28c-0.3,0-0.7,0-1,0.1c0.2-0.6,0.2-1.1,0.2-1.7c0-3.6-2.9-6.6-6.6-6.6c-0.9,0-1.8,0.2-2.6,0.5c-1.3-3.1-4.5-5.3-8.2-5.3
				c-4.1,0-7.6,2.7-8.8,6.4c-0.4-0.1-0.8-0.1-1.1-0.1c-4.6,0-8.3,3.7-8.3,8.3s3.7,8.3,8.3,8.3c3.4,0,25.4,0,28.2,0s5-2.2,5-5
				C55.6,30.2,53.4,28,50.6,28z"/>
			
				<path id="XMLID_1871_" fill="none" stroke="#000000" stroke-width="2" stroke-linecap="round" stroke-linejoin="round" stroke-miterlimit="10" d="
				M18.3,28.5c0-1.3,1-2.3,2.3-2.3"/>
		</g>
		<ellipse id="XMLID_2781_" fill="#D3D3D3" cx="34.9" cy="68.7" rx="20.1" ry="1.3"/>
		<text id="XMLID_3_" transform="matrix(1 0 0 1 25.0831 33.2011)" font-family="'BloggerSans-Bold'" font-size="11px">SEO</text>
	</g>
</g>
</svg>
