<?xml version="1.0" encoding="utf-8"?>
<!-- Generator: Adobe Illustrator 19.0.0, SVG Export Plug-In . SVG Version: 6.00 Build 0)  -->
<svg version="1.2" baseProfile="tiny" id="Layer_1" xmlns="http://www.w3.org/2000/svg" xmlns:xlink="http://www.w3.org/1999/xlink"
	 x="0px" y="0px" width="70px" height="70px" viewBox="0 0 70 70" xml:space="preserve">
<g id="Unique_urls_for_all_pages">
	<g id="XMLID_294_">
		<g id="XMLID_1280_">
			<g id="XMLID_1281_">
				<path id="XMLID_25_" fill="#FFFFFF" d="M8.5,58c-1.2,0-2.4-0.5-3.3-1.4l-0.6-0.6c-0.9-0.9-1.3-2-1.4-3.2c0-1.2,0.4-2.3,1.3-3.2
					l2.3-2.3c0.4-0.4,0.8-0.6,1.4-0.6c0.5,0,1,0.2,1.4,0.6c0.4,0.4,0.6,0.8,0.6,1.4c0,0.5-0.2,1-0.6,1.4l-2.3,2.3
					c-0.2,0.2-0.2,0.6,0.1,0.9L8,53.9c0.1,0.1,0.3,0.2,0.5,0.2c0.1,0,0.3,0,0.4-0.1l5-5c0.2-0.2,0.2-0.6-0.1-0.9
					c-0.8-0.8-0.8-2,0-2.7c0.4-0.4,0.8-0.6,1.4-0.6c0.5,0,1,0.2,1.4,0.6c0.9,0.9,1.3,2,1.4,3.2c0,1.2-0.4,2.3-1.3,3.2l-5,5
					C10.8,57.6,9.7,58,8.5,58z"/>
				<g id="XMLID_11_">
					<path id="XMLID_22_" d="M15.2,45.8c0.2,0,0.5,0.1,0.7,0.3c1.4,1.4,1.4,3.6,0.1,4.9l-5,5c-0.7,0.7-1.5,1-2.4,1
						C7.6,57,6.7,56.7,6,56l-0.6-0.6C4,54,4,51.8,5.3,50.4l2.3-2.3c0.2-0.2,0.4-0.3,0.7-0.3c0.2,0,0.5,0.1,0.7,0.3
						c0.4,0.4,0.4,0.9,0,1.3l-2.3,2.3C6,52.4,6,53.4,6.7,54.1l0.6,0.6c0.3,0.3,0.8,0.5,1.2,0.5c0.4,0,0.8-0.1,1.1-0.4l5-5
						c0.6-0.6,0.6-1.7-0.1-2.3c-0.4-0.4-0.4-0.9,0-1.3C14.7,45.9,14.9,45.8,15.2,45.8 M15.2,43.8c-0.8,0-1.5,0.3-2.1,0.9
						c-1.1,1.1-1.1,2.8-0.2,3.9L8.5,53l-0.2-0.2l2-2c1.1-1.1,1.1-3,0-4.1c-0.6-0.6-1.3-0.9-2.1-0.9s-1.5,0.3-2.1,0.9L3.9,49
						c-2.1,2.1-2.1,5.6,0.1,7.8l0.6,0.6C5.6,58.4,7,59,8.5,59c1.4,0,2.8-0.6,3.8-1.6l5-5c1-1,1.6-2.4,1.6-3.9c0-1.5-0.6-2.8-1.7-3.9
						C16.7,44.1,15.9,43.8,15.2,43.8L15.2,43.8z"/>
				</g>
			</g>
			<g id="XMLID_1290_">
				<path id="XMLID_28_" fill="#FFFFFF" d="M12.1,50.5c-0.5,0-1-0.2-1.4-0.6c-0.9-0.9-1.3-2-1.4-3.2c0-1.2,0.4-2.3,1.3-3.2l5-5
					c0.8-0.8,1.9-1.3,3.1-1.3c1.2,0,2.4,0.5,3.3,1.4l0.6,0.6c1.8,1.8,1.8,4.6,0.1,6.4L20.4,48c-0.4,0.4-0.8,0.6-1.4,0.6
					c-0.5,0-1-0.2-1.4-0.6c-0.8-0.8-0.8-2,0-2.7l2.3-2.3c0.1-0.1,0.1-0.3,0.1-0.4c0-0.2-0.1-0.4-0.2-0.5l-0.6-0.6
					c-0.1-0.1-0.3-0.2-0.5-0.2c-0.1,0-0.3,0-0.4,0.1l-5,5c-0.2,0.2-0.2,0.6,0.1,0.9c0.4,0.4,0.6,0.8,0.6,1.4c0,0.5-0.2,1-0.6,1.4
					C13.1,50.3,12.7,50.5,12.1,50.5z"/>
				<path id="XMLID_21_" d="M18.8,38.4c0.9,0,1.8,0.4,2.6,1.1l0.6,0.6c1.4,1.4,1.4,3.6,0.1,4.9l-2.3,2.3c-0.2,0.2-0.4,0.3-0.7,0.3
					s-0.5-0.1-0.7-0.3c-0.4-0.4-0.4-0.9,0-1.3l2.3-2.3c0.6-0.6,0.6-1.7-0.1-2.3L20,40.7c-0.3-0.3-0.8-0.5-1.2-0.5
					c-0.4,0-0.8,0.1-1.1,0.4l-5,5c-0.6,0.6-0.6,1.7,0.1,2.3c0.4,0.4,0.4,0.9,0,1.3c-0.2,0.2-0.4,0.3-0.7,0.3c-0.2,0-0.5-0.1-0.7-0.3
					c-1.4-1.4-1.4-3.6-0.1-4.9l5-5C17,38.7,17.9,38.4,18.8,38.4 M18.8,36.4c-1.4,0-2.8,0.6-3.8,1.6l-5,5c-1,1-1.6,2.4-1.6,3.9
					c0,1.5,0.6,2.8,1.7,3.9c0.6,0.6,1.3,0.9,2.1,0.9s1.5-0.3,2.1-0.9c1.1-1.1,1.1-2.8,0.2-3.9l4.4-4.4l0.2,0.2l-2,2
					c-1.1,1.1-1.1,3,0,4.1c0.6,0.6,1.3,0.9,2.1,0.9c0.8,0,1.5-0.3,2.1-0.9l2.3-2.3c1-1,1.6-2.4,1.6-3.9c0-1.5-0.6-2.8-1.7-3.9
					L22.7,38C21.7,37,20.3,36.4,18.8,36.4L18.8,36.4z"/>
			</g>
		</g>
		<g id="XMLID_288_">
			<g id="XMLID_297_">
				<path id="XMLID_20_" fill="#CE5D5D" d="M29.9,58c-1.2,0-2.4-0.5-3.3-1.4L26,56.1c-0.9-0.9-1.3-2-1.4-3.2c0-1.2,0.4-2.3,1.3-3.2
					l2.3-2.3c0.4-0.4,0.8-0.6,1.4-0.6c0.5,0,1,0.2,1.4,0.6c0.4,0.4,0.6,0.8,0.6,1.4c0,0.5-0.2,1-0.6,1.4l-2.3,2.3
					c-0.2,0.2-0.2,0.6,0.1,0.9l0.6,0.6c0.1,0.1,0.3,0.2,0.5,0.2c0.1,0,0.3,0,0.4-0.1l5-5c0.2-0.2,0.2-0.6-0.1-0.9
					c-0.8-0.8-0.8-2,0-2.7c0.4-0.4,0.8-0.6,1.4-0.6c0.5,0,1,0.2,1.4,0.6c0.9,0.9,1.3,2,1.4,3.2c0,1.2-0.4,2.3-1.3,3.2l-5,5
					C32.2,57.6,31.1,58,29.9,58z"/>
				<g id="XMLID_10_">
					<path id="XMLID_17_" d="M36.5,45.8c0.2,0,0.5,0.1,0.7,0.3c1.4,1.4,1.4,3.6,0.1,4.9l-5,5c-0.7,0.7-1.5,1-2.4,1
						C29,57,28,56.7,27.3,56l-0.6-0.6c-1.4-1.4-1.4-3.6-0.1-4.9l2.3-2.3c0.2-0.2,0.4-0.3,0.7-0.3s0.5,0.1,0.7,0.3
						c0.4,0.4,0.4,0.9,0,1.3L28,51.7c-0.6,0.6-0.6,1.7,0.1,2.3l0.6,0.6c0.3,0.3,0.8,0.5,1.2,0.5c0.4,0,0.8-0.1,1.1-0.4l5-5
						c0.6-0.6,0.6-1.7-0.1-2.3c-0.4-0.4-0.4-0.9,0-1.3C36,45.9,36.3,45.8,36.5,45.8 M36.5,43.8c-0.8,0-1.5,0.3-2.1,0.9
						c-1.1,1.1-1.1,2.8-0.2,3.9L29.8,53l-0.2-0.2l2-2c1.1-1.1,1.1-3,0-4.1c-0.6-0.6-1.3-0.9-2.1-0.9c-0.8,0-1.5,0.3-2.1,0.9L25.2,49
						c-2.1,2.1-2.1,5.6,0.1,7.8l0.6,0.6c1.1,1.1,2.5,1.7,4,1.7c1.4,0,2.8-0.6,3.8-1.6l5-5c1-1,1.6-2.4,1.6-3.9
						c0-1.5-0.6-2.8-1.7-3.9C38,44.1,37.3,43.8,36.5,43.8L36.5,43.8z"/>
				</g>
			</g>
			<g id="XMLID_289_">
				<path id="XMLID_16_" fill="#CE5D5D" d="M33.5,50.5c-0.5,0-1-0.2-1.4-0.6c-1.8-1.8-1.8-4.6-0.1-6.4l5-5c0.8-0.8,1.9-1.3,3.1-1.3
					c1.2,0,2.4,0.5,3.3,1.4l0.6,0.6c1.8,1.8,1.8,4.6,0.1,6.4L41.7,48c-0.4,0.4-0.8,0.6-1.4,0.6s-1-0.2-1.4-0.6s-0.6-0.8-0.6-1.4
					s0.2-1,0.6-1.4l2.3-2.3c0.1-0.1,0.1-0.3,0.1-0.4c0-0.2-0.1-0.4-0.2-0.5l-0.6-0.6c-0.1-0.1-0.3-0.2-0.5-0.2c-0.1,0-0.3,0-0.4,0.1
					l-5,5c-0.2,0.2-0.2,0.6,0.1,0.9c0.8,0.8,0.8,2,0,2.7C34.5,50.3,34,50.5,33.5,50.5z"/>
				<path id="XMLID_13_" d="M40.1,38.4c0.9,0,1.8,0.4,2.6,1.1l0.6,0.6c1.4,1.4,1.4,3.6,0.1,4.9L41,47.3c-0.2,0.2-0.4,0.3-0.7,0.3
					c-0.2,0-0.5-0.1-0.7-0.3c-0.4-0.4-0.4-0.9,0-1.3l2.3-2.3c0.6-0.6,0.6-1.7-0.1-2.3l-0.6-0.6c-0.3-0.3-0.8-0.5-1.2-0.5
					c-0.4,0-0.8,0.1-1.1,0.4l-5,5c-0.6,0.6-0.6,1.7,0.1,2.3c0.4,0.4,0.4,0.9,0,1.3c-0.2,0.2-0.4,0.3-0.7,0.3s-0.5-0.1-0.7-0.3
					c-1.4-1.4-1.4-3.6-0.1-4.9l5-5C38.4,38.7,39.2,38.4,40.1,38.4 M40.1,36.4c-1.4,0-2.8,0.6-3.8,1.6l-5,5c-1,1-1.6,2.4-1.6,3.9
					c0,1.5,0.6,2.8,1.7,3.9c0.6,0.6,1.3,0.9,2.1,0.9s1.5-0.3,2.1-0.9c1.1-1.1,1.1-2.8,0.2-3.9l4.4-4.4l0.2,0.2l-2,2
					c-1.1,1.1-1.1,3,0,4.1c0.6,0.6,1.3,0.9,2.1,0.9c0.8,0,1.5-0.3,2.1-0.9l2.3-2.3c2.1-2.1,2.1-5.6-0.1-7.8L44.1,38
					C43,37,41.6,36.4,40.1,36.4L40.1,36.4z"/>
			</g>
		</g>
		<g id="XMLID_308_">
			<g id="XMLID_321_">
				<path id="XMLID_12_" fill="#FFFFFF" d="M51.2,58c-1.2,0-2.4-0.5-3.3-1.4l-0.6-0.6c-0.9-0.9-1.3-2-1.4-3.2c0-1.2,0.4-2.3,1.3-3.2
					l2.3-2.3c0.4-0.4,0.8-0.6,1.4-0.6c0.5,0,1,0.2,1.4,0.6c0.4,0.4,0.6,0.8,0.6,1.4c0,0.5-0.2,1-0.6,1.4L50,52.4
					c-0.1,0.1-0.1,0.3-0.1,0.4c0,0.2,0.1,0.4,0.2,0.5l0.6,0.6c0.1,0.1,0.3,0.2,0.5,0.2c0.1,0,0.3,0,0.4-0.1l5-5
					c0.2-0.2,0.2-0.6-0.1-0.9c-0.8-0.8-0.8-2,0-2.7c0.4-0.4,0.8-0.6,1.4-0.6s1,0.2,1.4,0.6c0.9,0.9,1.3,2,1.4,3.2
					c0,1.2-0.4,2.3-1.3,3.2l-5,5C53.5,57.6,52.4,58,51.2,58z"/>
				<g id="XMLID_6_">
					<path id="XMLID_7_" d="M57.9,45.8c0.2,0,0.5,0.1,0.7,0.3c1.4,1.4,1.4,3.6,0.1,4.9l-5,5c-0.7,0.7-1.5,1-2.4,1
						c-0.9,0-1.8-0.4-2.6-1.1l-0.6-0.6c-1.4-1.4-1.4-3.6-0.1-4.9l2.3-2.3c0.2-0.2,0.4-0.3,0.7-0.3s0.5,0.1,0.7,0.3
						c0.4,0.4,0.4,0.9,0,1.3l-2.3,2.3c-0.6,0.6-0.6,1.7,0.1,2.3l0.6,0.6c0.3,0.3,0.8,0.5,1.2,0.5c0.4,0,0.8-0.1,1.1-0.4l5-5
						c0.6-0.6,0.6-1.7-0.1-2.3c-0.4-0.4-0.4-0.9,0-1.3C57.4,45.9,57.6,45.8,57.9,45.8 M57.9,43.8c-0.8,0-1.5,0.3-2.1,0.9
						c-1.1,1.1-1.1,2.8-0.2,3.9L51.2,53L51,52.9l2-2c1.1-1.1,1.1-3,0-4.1c-0.6-0.6-1.3-0.9-2.1-0.9c-0.8,0-1.5,0.3-2.1,0.9L46.6,49
						c-2.1,2.1-2.1,5.6,0.1,7.8l0.6,0.6c1.1,1.1,2.5,1.7,4,1.7c1.4,0,2.8-0.6,3.8-1.6l5-5c1-1,1.6-2.4,1.6-3.9
						c0-1.5-0.6-2.8-1.7-3.9C59.4,44.1,58.6,43.8,57.9,43.8L57.9,43.8z"/>
				</g>
			</g>
			<g id="XMLID_315_">
				<path id="XMLID_5_" fill="#FFFFFF" d="M54.8,50.5c-0.5,0-1-0.2-1.4-0.6c-0.9-0.9-1.3-2-1.4-3.2c0-1.2,0.4-2.3,1.3-3.2l5-5
					c0.8-0.8,1.9-1.3,3.1-1.3c1.2,0,2.4,0.5,3.3,1.4l0.6,0.6c0.9,0.9,1.3,2,1.4,3.2c0,1.2-0.4,2.3-1.3,3.2L63.1,48
					c-0.4,0.4-0.8,0.6-1.4,0.6c-0.5,0-1-0.2-1.4-0.6s-0.6-0.8-0.6-1.4s0.2-1,0.6-1.4l2.3-2.3c0.2-0.2,0.2-0.6-0.1-0.9L62,41.5
					c-0.1-0.1-0.3-0.2-0.5-0.2c-0.1,0-0.3,0-0.4,0.1l-5,5c-0.2,0.2-0.2,0.6,0.1,0.9c0.8,0.8,0.8,2,0,2.7
					C55.8,50.3,55.4,50.5,54.8,50.5z"/>
				<path id="XMLID_2_" d="M61.5,38.4c0.9,0,1.8,0.4,2.6,1.1l0.6,0.6c1.4,1.4,1.4,3.6,0.1,4.9l-2.3,2.3c-0.2,0.2-0.4,0.3-0.7,0.3
					s-0.5-0.1-0.7-0.3c-0.4-0.4-0.4-0.9,0-1.3l2.3-2.3C64,43,64,42,63.3,41.3l-0.6-0.6c-0.3-0.3-0.8-0.5-1.2-0.5
					c-0.4,0-0.8,0.1-1.1,0.4l-5,5c-0.6,0.6-0.6,1.7,0.1,2.3c0.4,0.4,0.4,0.9,0,1.3c-0.2,0.2-0.4,0.3-0.7,0.3s-0.5-0.1-0.7-0.3
					c-1.4-1.4-1.4-3.6-0.1-4.9l5-5C59.7,38.7,60.6,38.4,61.5,38.4 M61.5,36.4c-1.4,0-2.8,0.6-3.8,1.6l-5,5c-1,1-1.6,2.4-1.6,3.9
					c0,1.5,0.6,2.8,1.7,3.9c0.6,0.6,1.3,0.9,2.1,0.9s1.5-0.3,2.1-0.9c1.1-1.1,1.1-2.8,0.2-3.9l4.4-4.4l0.2,0.2l-2,2
					c-1.1,1.1-1.1,3,0,4.1c0.6,0.6,1.3,0.9,2.1,0.9c0.8,0,1.5-0.3,2.1-0.9l2.3-2.3c2.1-2.1,2.1-5.6-0.1-7.8L65.4,38
					C64.4,37,63,36.4,61.5,36.4L61.5,36.4z"/>
			</g>
		</g>
	</g>
	<ellipse id="XMLID_287_" fill="#D3D3D3" cx="35" cy="68.7" rx="32.4" ry="1.3"/>
</g>
</svg>
