<?xml version="1.0" encoding="utf-8"?>
<!-- Generator: Adobe Illustrator 19.0.0, SVG Export Plug-In . SVG Version: 6.00 Build 0)  -->
<svg version="1.1" id="Layer_1" xmlns="http://www.w3.org/2000/svg" xmlns:xlink="http://www.w3.org/1999/xlink" x="0px" y="0px"
	 width="165px" height="127px" viewBox="-397 217 165 127" style="enable-background:new -397 217 165 127;" xml:space="preserve">
<style type="text/css">
	.st0{fill:#E2D374;}
	.st1{fill:#F6E7A7;}
	.st2{opacity:0.2;}
	.st3{opacity:0.15;}
	.st4{fill:#231F20;}
	.st5{fill:#90D8F7;}
	.st6{fill:#FFFFFF;}
	.st7{fill:#020303;}
	.st8{fill:#CE5D5D;}
	.st9{stroke:#000000;stroke-miterlimit:10;}
</style>
<g>
	<g id="XMLID_748_">
		<g id="XMLID_403_">
			<g>
				<circle class="st0" cx="-312.2" cy="298.6" r="18.7"/>
			</g>
			<g>
				<path d="M-312.2,318.3c-4.4,0-8.7-1.5-12.2-4.3c-4.1-3.3-6.7-8-7.3-13.2c-0.6-5.2,0.9-10.3,4.2-14.4c3.3-4.1,8-6.7,13.2-7.3
					c10.8-1.2,20.5,6.6,21.7,17.4l0,0c1.2,10.8-6.6,20.5-17.4,21.7C-310.8,318.2-311.5,318.3-312.2,318.3z M-312.2,280.8
					c-0.7,0-1.3,0-2,0.1c-4.7,0.5-9,2.9-11.9,6.6c-3,3.7-4.3,8.4-3.8,13.1c0.5,4.7,2.9,9,6.6,11.9c3.7,3,8.3,4.3,13.1,3.8
					c9.7-1.1,16.8-9.9,15.7-19.6C-295.5,287.6-303.2,280.8-312.2,280.8z"/>
			</g>
		</g>
		<g id="XMLID_414_">
			<g id="XMLID_406_">
				<g>
					<circle class="st1" cx="-314.9" cy="293.3" r="4.6"/>
				</g>
				<g>
					<path d="M-314.9,298.9c-2.8,0-5.2-2.1-5.5-4.9c-0.2-1.5,0.3-2.9,1.2-4.1c0.9-1.2,2.2-1.9,3.7-2c3-0.3,5.8,1.9,6.1,4.9l0,0
						c0.3,3-1.9,5.8-4.9,6.1C-314.5,298.8-314.7,298.9-314.9,298.9z M-314.9,289.7c-0.1,0-0.3,0-0.4,0c-1,0.1-1.8,0.6-2.5,1.4
						c-0.6,0.8-0.9,1.7-0.8,2.7c0.2,2,2,3.5,4,3.2c2-0.2,3.5-2,3.2-4C-311.4,291.1-313,289.7-314.9,289.7z"/>
				</g>
			</g>
			<g id="XMLID_407_">
				<g>
					<circle class="st1" cx="-312.6" cy="285.4" r="1.4"/>
				</g>
				<g>
					<path d="M-312.6,287.8c-0.5,0-1-0.2-1.5-0.5c-0.5-0.4-0.8-1-0.9-1.6c-0.1-0.6,0.1-1.2,0.5-1.7c0.4-0.5,1-0.8,1.6-0.9
						c1.3-0.1,2.5,0.8,2.6,2.1l0,0c0.1,0.6-0.1,1.2-0.5,1.7c-0.4,0.5-1,0.8-1.6,0.9C-312.4,287.8-312.5,287.8-312.6,287.8z
						 M-312.6,284.9C-312.6,284.9-312.6,284.9-312.6,284.9c-0.2,0-0.3,0.1-0.4,0.2c-0.1,0.1-0.1,0.2-0.1,0.4c0,0.1,0.1,0.3,0.2,0.3
						s0.2,0.1,0.4,0.1c0.1,0,0.3-0.1,0.3-0.2c0.1-0.1,0.1-0.2,0.1-0.4v0C-312.1,285.1-312.3,284.9-312.6,284.9z"/>
				</g>
			</g>
			<g id="XMLID_408_">
				<g>
					<circle class="st1" cx="-301.8" cy="295.8" r="3"/>
				</g>
				<g>
					<path d="M-301.8,299.7c-0.9,0-1.7-0.3-2.5-0.9c-0.8-0.7-1.3-1.6-1.5-2.6c-0.2-2.2,1.3-4.1,3.5-4.4c2.1-0.2,4.1,1.3,4.3,3.5l0,0
						c0.1,1-0.2,2.1-0.8,2.9c-0.7,0.8-1.6,1.3-2.6,1.5C-301.5,299.7-301.6,299.7-301.8,299.7z M-301.8,293.7c-0.1,0-0.2,0-0.2,0
						c-1.1,0.1-2,1.2-1.8,2.3c0.1,1.1,1.2,2,2.3,1.8c1.1-0.1,2-1.2,1.8-2.3C-299.8,294.5-300.7,293.7-301.8,293.7z"/>
				</g>
			</g>
			<g id="XMLID_409_">
				<g>
					<circle class="st1" cx="-310.4" cy="308.9" r="3"/>
				</g>
				<g>
					<path d="M-310.4,312.8c-0.9,0-1.7-0.3-2.5-0.9c-0.8-0.7-1.3-1.6-1.5-2.6c-0.1-1,0.2-2.1,0.8-2.9c0.7-0.8,1.6-1.3,2.6-1.5
						c1.1-0.1,2.1,0.2,2.9,0.8c0.8,0.7,1.3,1.6,1.5,2.6c0.1,1-0.2,2.1-0.8,2.9c-0.7,0.8-1.6,1.3-2.6,1.5
						C-310.1,312.8-310.3,312.8-310.4,312.8z M-310.4,306.8c-0.1,0-0.2,0-0.2,0c-0.6,0.1-1,0.3-1.4,0.8c-0.3,0.4-0.5,1-0.4,1.5
						c0.1,1.1,1.2,2,2.3,1.8c0.6-0.1,1-0.3,1.4-0.8c0.3-0.4,0.5-1,0.4-1.5l0,0c-0.1-0.6-0.3-1-0.8-1.4
						C-309.5,306.9-309.9,306.8-310.4,306.8z"/>
				</g>
			</g>
			<g id="XMLID_411_">
				<g>
					<circle class="st1" cx="-319.9" cy="306.9" r="1.3"/>
				</g>
				<g>
					<path d="M-319.9,309.1c-0.5,0-1-0.2-1.4-0.5c-0.5-0.4-0.8-0.9-0.8-1.5c-0.1-0.6,0.1-1.2,0.5-1.6c0.4-0.5,0.9-0.8,1.5-0.8
						c1.2-0.1,2.3,0.7,2.4,2c0.1,0.6-0.1,1.2-0.5,1.6c-0.4,0.5-0.9,0.8-1.5,0.8C-319.7,309.1-319.8,309.1-319.9,309.1z
						 M-319.9,306.5C-319.9,306.5-319.9,306.5-319.9,306.5c-0.2,0-0.2,0.1-0.3,0.1c0,0-0.1,0.1-0.1,0.3s0.1,0.2,0.1,0.2
						c0,0,0.1,0.1,0.3,0.1c0.1,0,0.2-0.1,0.2-0.1c0,0,0.1-0.1,0.1-0.3C-319.5,306.7-319.7,306.5-319.9,306.5z"/>
				</g>
			</g>
			<g id="XMLID_422_">
				<g>
					<circle class="st1" cx="-302.9" cy="306.9" r="0.9"/>
				</g>
				<g>
					<path d="M-302.9,308.8c-0.9,0-1.7-0.7-1.8-1.7c-0.1-1,0.6-1.9,1.6-2.1c1-0.1,1.9,0.6,2.1,1.6c0.1,0.5-0.1,1-0.4,1.4
						c-0.3,0.4-0.8,0.6-1.2,0.7C-302.8,308.8-302.8,308.8-302.9,308.8z"/>
				</g>
			</g>
			<g id="XMLID_423_">
				<g>
					<circle class="st1" cx="-314.6" cy="301.4" r="0.9"/>
				</g>
				<g>
					<path d="M-314.6,303.2c-0.9,0-1.7-0.7-1.8-1.7c-0.1-1,0.6-1.9,1.6-2.1c1-0.1,1.9,0.6,2.1,1.6l0,0c0.1,0.5-0.1,1-0.4,1.4
						c-0.3,0.4-0.8,0.6-1.2,0.7C-314.4,303.2-314.5,303.2-314.6,303.2z"/>
				</g>
			</g>
			<g id="XMLID_412_">
				<g>
					<circle class="st1" cx="-324.1" cy="297.7" r="1.8"/>
				</g>
				<g>
					<path d="M-324.1,300.4c-0.6,0-1.2-0.2-1.7-0.6c-0.6-0.5-0.9-1.1-1-1.8c-0.2-1.5,0.9-2.8,2.4-3c1.5-0.2,2.8,0.9,3,2.4l0,0
						c0.2,1.5-0.9,2.8-2.4,3C-323.9,300.4-324,300.4-324.1,300.4z M-324.1,296.8C-324.1,296.8-324.1,296.8-324.1,296.8
						c-0.6,0.1-0.9,0.5-0.8,0.9c0,0.2,0.1,0.4,0.3,0.6c0.2,0.1,0.4,0.2,0.6,0.2c0.5-0.1,0.8-0.5,0.7-0.9l0,0
						C-323.3,297.2-323.6,296.8-324.1,296.8z"/>
				</g>
			</g>
		</g>
		<g id="XMLID_404_">
			<g>
				<g>
					<path d="M-279.7,292.5c-0.1,0-0.1,0-0.2,0c-0.5-0.1-0.8-0.6-0.7-1.1c0.1-0.3,0.1-0.5,0-0.8c-0.6-1.8-5.5-2.9-15.3-1.5
						c-0.5,0.1-1-0.3-1.1-0.8c-0.1-0.5,0.3-1,0.8-1.1c5.9-0.9,16-1.7,17.4,2.8c0.2,0.5,0.2,1.1,0.1,1.7
						C-278.8,292.2-279.2,292.5-279.7,292.5z"/>
				</g>
			</g>
			<g>
				<g>
					<path d="M-295.3,304.1c-0.4,0-0.7-0.2-0.8-0.5c-0.2-0.5,0-1,0.5-1.2c1.6-0.7,3.1-1.4,4.4-2.2c0.5-0.2,1-0.1,1.3,0.4
						c0.2,0.5,0.1,1-0.4,1.3c-1.4,0.7-2.9,1.5-4.5,2.2C-295.1,304.1-295.2,304.1-295.3,304.1z M-288.7,300.7c-0.3,0-0.6-0.2-0.8-0.5
						c-0.3-0.4-0.1-1,0.3-1.3c3.6-2.1,6.2-4.1,7.6-5.8c0.3-0.4,0.9-0.5,1.3-0.2c0.4,0.3,0.5,0.9,0.2,1.3c-1.5,1.9-4.3,4.1-8.1,6.3
						C-288.3,300.7-288.5,300.7-288.7,300.7z"/>
				</g>
			</g>
			<g>
				<g>
					<path d="M-333,313.7c-1.2,0-2.3-0.1-3.3-0.2c-0.5-0.1-0.9-0.5-0.8-1c0.1-0.5,0.5-0.9,1-0.8c1.4,0.2,3,0.2,4.8,0.1
						c0.5,0,0.9,0.4,1,0.9c0,0.5-0.4,0.9-0.9,1C-331.8,313.7-332.4,313.7-333,313.7z M-328.8,313.5c-0.5,0-0.9-0.4-0.9-0.8
						c0-0.5,0.3-1,0.8-1c2.9-0.3,6.2-0.8,9.7-1.5c0.5-0.1,1,0.2,1.1,0.7c0.1,0.5-0.2,1-0.7,1.1
						C-322.3,312.6-325.7,313.2-328.8,313.5C-328.7,313.5-328.7,313.5-328.8,313.5z M-316.5,311.3c-0.4,0-0.8-0.3-0.9-0.7
						c-0.1-0.5,0.2-1,0.7-1.1c2.8-0.7,5.6-1.5,8.4-2.4c3.6-1.1,7.1-2.4,10.4-3.8c0.5-0.2,1,0,1.2,0.5c0.2,0.5,0,1-0.5,1.2
						c-3.3,1.4-6.9,2.7-10.5,3.9c-2.9,0.9-5.7,1.7-8.5,2.4C-316.4,311.3-316.4,311.3-316.5,311.3z"/>
				</g>
			</g>
			<g>
				<g>
					<path d="M-338.7,313c-0.1,0-0.2,0-0.3,0c-1.8-0.6-2.9-1.5-3.3-2.7c-1.3-4,6-8.7,10.5-11.2c0.5-0.2,1-0.1,1.3,0.4
						c0.2,0.4,0.1,1-0.4,1.3c-7.9,4.3-10.1,7.5-9.6,9c0.2,0.8,1.3,1.2,2.1,1.5c0.5,0.2,0.8,0.7,0.6,1.2
						C-337.9,312.7-338.3,313-338.7,313z"/>
				</g>
			</g>
		</g>
		<g id="XMLID_517_" class="st2">
			<g>
				<path d="M-323,314.9c-0.5,0-0.9-0.3-0.9-0.8c-0.1-0.5,0.3-1,0.8-1c4.7-0.7,10-2,16.3-3.9c5-1.6,7.6-2.5,11.7-4.5
					c0.5-0.2,1,0,1.2,0.4c0.2,0.5,0,1-0.4,1.2c-4.2,2-6.9,2.9-12,4.6c-6.4,2-11.8,3.3-16.6,4C-322.9,314.9-322.9,314.9-323,314.9z"
					/>
			</g>
		</g>
	</g>
	<g id="XMLID_1_" class="st3">
		<ellipse class="st4" cx="-311.6" cy="326" rx="13.3" ry="1.9"/>
	</g>
	<g id="XMLID_381_">
		<line class="st5" x1="-313.5" y1="268.5" x2="-311.1" y2="268"/>
		<path d="M-313.5,269.4c-0.4,0-0.8-0.3-0.9-0.7c-0.1-0.5,0.2-1,0.7-1.1l2.4-0.5c0.5-0.1,1,0.2,1.1,0.7c0.1,0.5-0.2,1-0.7,1.1
			l-2.4,0.5C-313.3,269.4-313.4,269.4-313.5,269.4z"/>
	</g>
	<g id="XMLID_225_">
		<line class="st5" x1="-303.4" y1="267.2" x2="-305.1" y2="270.4"/>
		<path d="M-305.1,271.4c-0.1,0-0.3,0-0.4-0.1c-0.5-0.2-0.6-0.8-0.4-1.3l1.7-3.3c0.2-0.5,0.8-0.6,1.3-0.4c0.5,0.2,0.6,0.8,0.4,1.3
			l-1.7,3.3C-304.4,271.2-304.8,271.4-305.1,271.4z"/>
	</g>
	<g id="XMLID_176_">
		<line class="st5" x1="-300" y1="252.3" x2="-297.4" y2="256.3"/>
		<path d="M-297.4,257.2c-0.3,0-0.6-0.1-0.8-0.4l-2.6-4c-0.3-0.4-0.2-1,0.3-1.3c0.4-0.3,1-0.2,1.3,0.3l2.6,4c0.3,0.4,0.2,1-0.3,1.3
			C-297,257.2-297.2,257.2-297.4,257.2z"/>
	</g>
	<g id="XMLID_177_">
		<line class="st5" x1="-329" y1="248.6" x2="-324.9" y2="252.2"/>
		<path d="M-324.9,253.1c-0.2,0-0.4-0.1-0.6-0.2l-4.1-3.7c-0.4-0.3-0.4-0.9-0.1-1.3c0.3-0.4,0.9-0.4,1.3-0.1l4.1,3.7
			c0.4,0.3,0.4,0.9,0.1,1.3C-324.4,253-324.6,253.1-324.9,253.1z"/>
	</g>
	<g id="XMLID_691_">
		<g id="XMLID_711_">
			<g id="XMLID_726_">
				<path class="st1" d="M-291,267.9l-5.1,5c-0.5,0.5-0.5,1.3,0,1.8l0,0c0.5,0.5,1.3,0.5,1.8,0l5.1-5L-291,267.9z"/>
				<path d="M-295.2,276c-0.6,0-1.2-0.2-1.6-0.7c-0.4-0.4-0.6-1-0.6-1.6c0-0.6,0.2-1.2,0.7-1.6l5.7-5.6l3.1,3.2l-5.7,5.6
					C-294,275.8-294.6,276-295.2,276z M-291,269.2l-4.4,4.3c-0.1,0.1-0.1,0.2-0.1,0.3c0,0.1,0,0.2,0.1,0.3c0.1,0.1,0.4,0.1,0.5,0
					l4.4-4.3L-291,269.2z"/>
			</g>
		</g>
		<g id="XMLID_703_">
			<path class="st6" d="M-285.9,257.7c-4,0-7.2,3.2-7.2,7.2s3.2,7.2,7.2,7.2s7.2-3.2,7.2-7.2S-281.9,257.7-285.9,257.7z
				 M-285.9,269.9c-2.7,0-4.9-2.2-4.9-4.9s2.2-4.9,4.9-4.9c2.7,0,4.9,2.2,4.9,4.9S-283.2,269.9-285.9,269.9z"/>
			<path d="M-285.9,273.1c-4.5,0-8.2-3.7-8.2-8.2s3.7-8.2,8.2-8.2s8.2,3.7,8.2,8.2S-281.4,273.1-285.9,273.1z M-285.9,258.6
				c-3.5,0-6.3,2.8-6.3,6.3s2.8,6.3,6.3,6.3c3.5,0,6.3-2.8,6.3-6.3S-282.4,258.6-285.9,258.6z M-285.9,270.8c-3.2,0-5.8-2.6-5.8-5.8
				c0-3.2,2.6-5.8,5.8-5.8c3.2,0,5.8,2.6,5.8,5.8C-280,268.2-282.7,270.8-285.9,270.8z M-285.9,260.9c-2.2,0-4,1.8-4,4
				c0,2.2,1.8,4,4,4c2.2,0,4-1.8,4-4C-281.9,262.7-283.7,260.9-285.9,260.9z"/>
		</g>
		<g id="XMLID_694_">
			<path d="M-283.8,266.5c-0.1,0-0.3,0-0.4-0.1c-0.5-0.2-0.7-0.8-0.4-1.2c0.1-0.3,0.1-0.6,0.1-0.8c-0.1-0.2-0.2-0.4-0.4-0.5
				c-0.5-0.2-0.7-0.8-0.4-1.2c0.2-0.5,0.8-0.7,1.2-0.4c0.7,0.3,1.2,0.9,1.4,1.6c0.2,0.7,0.2,1.5-0.2,2.2
				C-283.1,266.3-283.4,266.5-283.8,266.5z"/>
		</g>
	</g>
	<g id="XMLID_107_">
		<g id="XMLID_268_">
			<g id="XMLID_271_">
				<path class="st6" d="M-328.5,275.5h-19.2c-0.9,0-1.6-0.7-1.6-1.6v-10.8c0-0.9,0.7-1.6,1.6-1.6h19.2c0.9,0,1.6,0.7,1.6,1.6v10.8
					C-327,274.8-327.7,275.5-328.5,275.5z"/>
				<path class="st7" d="M-328.5,276.4h-19.2c-1.4,0-2.5-1.1-2.5-2.5v-10.8c0-1.4,1.1-2.5,2.5-2.5h19.2c1.4,0,2.5,1.1,2.5,2.5v10.8
					C-326,275.3-327.1,276.4-328.5,276.4z M-347.7,262.6c-0.3,0-0.6,0.3-0.6,0.6v10.8c0,0.3,0.3,0.6,0.6,0.6h19.2
					c0.3,0,0.6-0.3,0.6-0.6v-10.8c0-0.3-0.3-0.6-0.6-0.6H-347.7z"/>
			</g>
			<g id="XMLID_270_">
				<path class="st1" d="M-326.9,262.3h-22.4c-0.5,0-1-0.4-1-1v-0.8c0-0.5,0.4-1,1-1h22.4c0.5,0,1,0.4,1,1v0.8
					C-325.9,261.9-326.4,262.3-326.9,262.3z"/>
				<path d="M-326.9,263.2h-22.4c-1.1,0-1.9-0.9-1.9-1.9v-0.8c0-1.1,0.9-1.9,1.9-1.9h22.4c1.1,0,1.9,0.9,1.9,1.9v0.8
					C-325,262.4-325.9,263.2-326.9,263.2z M-349.3,260.4l-0.1,0.9l22.5,0.1c0,0,0.1,0,0.1-0.1v-0.8L-349.3,260.4z"/>
			</g>
			<g id="XMLID_272_">
				<path class="st7" d="M-345.6,273C-345.7,273-345.7,273-345.6,273c-0.5,0-0.8-0.3-0.9-0.7l-0.2-0.9c-0.2,0.4-0.6,0.7-1.1,0.5
					c-0.5-0.1-0.8-0.7-0.6-1.1l0.9-3.2c0.1-0.4,0.5-0.7,0.9-0.7c0.4,0,0.8,0.3,0.9,0.7l0.4,1.4l0.2-0.5c0.1-0.3,0.5-0.6,0.8-0.6
					c0.1,0,0.3,0,0.4,0.1l1-3c0.1-0.4,0.5-0.6,0.9-0.6c0.4,0,0.8,0.3,0.9,0.7l0.6,2l0.2-0.5c0.1-0.4,0.5-0.6,0.9-0.6c0,0,0,0,0,0
					c0.4,0,0.7,0.3,0.9,0.6l0.8,2.3l1.1-3.3c0.2-0.5,0.7-0.8,1.2-0.6c0.5,0.2,0.8,0.7,0.6,1.2l-1.9,6c-0.1,0.4-0.5,0.6-0.9,0.6
					c-0.4,0-0.8-0.2-0.9-0.6l-0.9-2.5l-0.3,0.7c-0.1,0.4-0.5,0.6-0.9,0.6c-0.4,0-0.7-0.3-0.9-0.7l-0.5-1.8l-0.7,2
					c-0.1,0.4-0.4,0.6-0.8,0.6c-0.2,0-0.4,0-0.5-0.1l-0.6,1.5C-344.9,272.8-345.3,273-345.6,273z"/>
			</g>
		</g>
		<g id="XMLID_122_">
			<g id="XMLID_262_">
				<line class="st8" x1="-331.3" y1="265.9" x2="-328.9" y2="265.9"/>
				<path class="st7" d="M-328.9,266.8h-2.4c-0.5,0-0.9-0.4-0.9-0.9c0-0.5,0.4-0.9,0.9-0.9h2.4c0.5,0,0.9,0.4,0.9,0.9
					C-328,266.4-328.4,266.8-328.9,266.8z"/>
			</g>
			<g id="XMLID_261_">
				<path class="st7" d="M-333.3,267.4c-0.8,0-1.5-0.7-1.5-1.5c0-0.8,0.7-1.5,1.5-1.5c0.8,0,1.5,0.7,1.5,1.5
					C-331.8,266.7-332.5,267.4-333.3,267.4z M-333.3,265.6c-0.2,0-0.3,0.1-0.3,0.3c0,0.2,0.1,0.3,0.3,0.3c0.2,0,0.3-0.1,0.3-0.3
					C-333,265.7-333.1,265.6-333.3,265.6z"/>
			</g>
			<g id="XMLID_260_">
				<line class="st8" x1="-331.3" y1="268.7" x2="-328.9" y2="268.7"/>
				<path class="st7" d="M-328.9,269.7h-2.4c-0.5,0-0.9-0.4-0.9-0.9s0.4-0.9,0.9-0.9h2.4c0.5,0,0.9,0.4,0.9,0.9
					S-328.4,269.7-328.9,269.7z"/>
			</g>
			<g id="XMLID_254_">
				<path class="st7" d="M-333.3,270.3c-0.8,0-1.5-0.7-1.5-1.5c0-0.8,0.7-1.5,1.5-1.5c0.8,0,1.5,0.7,1.5,1.5
					C-331.8,269.6-332.5,270.3-333.3,270.3z M-333.3,268.4c-0.2,0-0.3,0.1-0.3,0.3c0,0.2,0.1,0.3,0.3,0.3c0.2,0,0.3-0.1,0.3-0.3
					C-333,268.6-333.1,268.4-333.3,268.4z"/>
			</g>
			<g id="XMLID_248_">
				<line class="st8" x1="-331.3" y1="271.5" x2="-328.9" y2="271.5"/>
				<path class="st7" d="M-328.9,272.4h-2.4c-0.5,0-0.9-0.4-0.9-0.9s0.4-0.9,0.9-0.9h2.4c0.5,0,0.9,0.4,0.9,0.9
					S-328.4,272.4-328.9,272.4z"/>
			</g>
			<g id="XMLID_171_">
				<path class="st7" d="M-333.3,273c-0.8,0-1.5-0.7-1.5-1.5c0-0.8,0.7-1.5,1.5-1.5c0.8,0,1.5,0.7,1.5,1.5
					C-331.8,272.3-332.5,273-333.3,273z M-333.3,271.2c-0.2,0-0.3,0.1-0.3,0.3c0,0.2,0.1,0.3,0.3,0.3c0.2,0,0.3-0.1,0.3-0.3
					C-333,271.3-333.1,271.2-333.3,271.2z"/>
			</g>
		</g>
	</g>
	<g id="XMLID_29_">
		<g id="XMLID_36_">
			<g id="XMLID_1307_">
				<polygon class="st1" points="-308,256.8 -315.4,256.8 -313.2,247.8 -310.2,247.8 				"/>
				<path d="M-306.8,257.7h-9.9l2.7-10.8h4.4L-306.8,257.7z M-314.2,255.8h5.1l-1.8-7.1h-1.5L-314.2,255.8z"/>
			</g>
			<g id="XMLID_1134_">
				<g id="XMLID_1137_">
					<g id="XMLID_1138_">
						<path d="M-302.9,244.7c-2.6,0-4.8-2-4.8-4.5s2.1-4.5,4.8-4.5c0.3,0,0.6,0,0.9,0c1.4,0,2.6-0.1,3.5,0.7c0.4,0.4,0.7,1,0.7,1.8
							C-297.8,240.7-300.2,244.7-302.9,244.7z M-301.1,237.6c-0.3,0-0.5,0-0.8,0c-0.3,0-0.7,0-1,0c-1.6,0-2.9,1.2-2.9,2.6
							s1.3,2.6,2.9,2.6c1.4,0,3.2-2.9,3.2-4.6c0-0.1,0-0.4-0.1-0.4C-300,237.6-300.5,237.6-301.1,237.6z"/>
					</g>
				</g>
				<g id="XMLID_1135_">
					<g id="XMLID_1136_">
						<path d="M-320.5,244.7c-2.7,0-5.1-4-5.1-6.5c0-0.8,0.2-1.3,0.7-1.8c0.8-0.8,2.1-0.8,3.5-0.7c0.3,0,0.6,0,0.9,0
							c2.6,0,4.8,2,4.8,4.5S-317.9,244.7-320.5,244.7z M-322.3,237.6c-0.6,0-1.1,0-1.3,0.2c-0.1,0.1-0.1,0.3-0.1,0.4
							c0,1.7,1.8,4.6,3.2,4.6c1.6,0,2.9-1.2,2.9-2.6s-1.3-2.6-2.9-2.6c-0.3,0-0.7,0-1,0C-321.8,237.6-322,237.6-322.3,237.6z"/>
					</g>
				</g>
			</g>
			<g id="XMLID_415_" class="st2">
				<rect x="-313.8" y="249.3" width="4.2" height="1.6"/>
			</g>
			<g id="XMLID_410_">
				<path class="st0" d="M-303.4,233c0.8,0,1.5,0.7,1.5,1.5c-0.3,8.1-3.2,14.4-9.7,14.4c-6.5,0-9.4-6.3-9.7-14.4
					c0-0.8,0.6-1.5,1.5-1.5H-303.4z"/>
				<path d="M-311.7,249.9c-6.4,0-10.3-5.6-10.7-15.3c0-0.7,0.2-1.3,0.7-1.8c0.5-0.5,1.1-0.7,1.7-0.7h16.5c0.6,0,1.3,0.3,1.7,0.7
					c0.5,0.5,0.7,1.1,0.7,1.7C-301.4,244.3-305.3,249.9-311.7,249.9z M-320,234c-0.2,0-0.3,0.1-0.4,0.2c-0.1,0.1-0.2,0.2-0.2,0.4
					c0.2,4.1,1.3,13.5,8.8,13.5c7.2,0,8.6-8.4,8.8-13.5c0-0.2-0.1-0.3-0.2-0.4c-0.1-0.1-0.2-0.2-0.4-0.2H-320z"/>
			</g>
			<g id="XMLID_342_">
				<path class="st0" d="M-305.5,260.5h-12.4c-0.9,0-1.6-0.7-1.6-1.6v-1.5c0-0.9,0.7-1.6,1.6-1.6h12.4c0.9,0,1.6,0.7,1.6,1.6v1.5
					C-303.9,259.8-304.6,260.5-305.5,260.5z"/>
				<path d="M-305.5,261.4h-12.4c-1.4,0-2.5-1.1-2.5-2.5v-1.5c0-1.4,1.1-2.5,2.5-2.5h12.4c1.4,0,2.5,1.1,2.5,2.5v1.5
					C-303,260.3-304.1,261.4-305.5,261.4z M-317.9,256.9c-0.3,0-0.6,0.3-0.6,0.6v1.5c0,0.3,0.3,0.6,0.6,0.6h12.4
					c0.3,0,0.6-0.3,0.6-0.6v-1.5c0-0.3-0.3-0.6-0.6-0.6H-317.9z"/>
			</g>
			<g id="XMLID_4_">
				<circle class="st6" cx="-311.7" cy="240.4" r="4.1"/>
				<path d="M-311.7,245.4c-2.8,0-5-2.3-5-5c0-2.8,2.3-5,5-5s5,2.3,5,5C-306.7,243.2-308.9,245.4-311.7,245.4z M-311.7,237.2
					c-1.7,0-3.2,1.4-3.2,3.2c0,1.7,1.4,3.2,3.2,3.2c1.7,0,3.2-1.4,3.2-3.2C-308.5,238.7-310,237.2-311.7,237.2z"/>
			</g>
			<g id="XMLID_5_">
				<path class="st9" d="M-311.9,242.5v-3.2l-0.5,0.3c-0.1,0-0.1,0.1-0.2,0.1c-0.1,0-0.1,0-0.2,0c-0.1,0-0.2,0-0.3-0.1
					c-0.1-0.1-0.1-0.2-0.1-0.3c0-0.1,0-0.2,0.1-0.2c0-0.1,0.1-0.1,0.1-0.1l1.3-0.8c0.1,0,0.2-0.1,0.3-0.1c0.1,0,0.3,0,0.3,0.1
					c0.1,0.1,0.1,0.2,0.1,0.3v3.9c0,0.1,0,0.2-0.1,0.3s-0.2,0.1-0.3,0.1c-0.1,0-0.2,0-0.3-0.1C-311.9,242.7-311.9,242.6-311.9,242.5
					z"/>
			</g>
		</g>
	</g>
</g>
</svg>
