<svg xmlns="http://www.w3.org/2000/svg" xmlns:xlink="http://www.w3.org/1999/xlink" preserveAspectRatio="xMidYMid" width="10" height="7.18" viewBox="0 0 10 7.18">
  <defs>
    <style>
      .cls-1 {
        fill: #8da3cd;
        fill-rule: evenodd;
      }
    </style>
  </defs>
  <path d="M9.541,2.395 L4.454,6.942 C4.265,7.110 4.029,7.194 3.792,7.194 C3.549,7.194 3.306,7.106 3.115,6.929 L0.444,4.446 C-0.114,3.928 -0.146,3.051 0.372,2.492 C0.633,2.211 1.002,2.050 1.385,2.050 C1.734,2.050 2.067,2.181 2.325,2.420 L3.815,3.804 L7.701,0.332 C7.954,0.105 8.281,-0.019 8.621,-0.019 C9.014,-0.019 9.389,0.149 9.652,0.443 C9.898,0.718 10.022,1.073 10.001,1.442 C9.980,1.811 9.817,2.150 9.541,2.395 Z" class="cls-1"/>
</svg>
